<svg width="95" height="82" viewBox="0 0 95 82" fill="none" xmlns="http://www.w3.org/2000/svg">
<rect width="28.3653" height="40.0912" rx="14.1827" transform="matrix(0.999945 -0.0104438 -0.00937233 -0.999956 34.3838 81.5532)" fill="#FF1B1A"/>
<rect width="28.4253" height="37.3571" rx="14.2127" transform="matrix(0.979166 -0.203061 0.182962 0.98312 3.46484 11.3625)" fill="#FF1B1A"/>
<rect width="27.9989" height="36.7967" rx="13.9995" transform="matrix(0.919071 0.394092 0.375184 -0.92695 0.902344 66.8796)" fill="#FF1B1A"/>
<rect width="28.3653" height="37.4283" rx="14.1827" transform="matrix(0.999945 0.0104438 -0.00937233 0.999956 34.4492 0)" fill="#FF1B1A"/>
<rect width="27.8885" height="36.3236" rx="13.9442" transform="matrix(0.931664 0.363321 -0.330315 0.943871 68.249 5.32031)" fill="#FF1B1A"/>
<rect width="28.5525" height="37.1885" rx="14.2763" transform="matrix(0.931664 -0.363321 -0.330315 -0.943871 67.6587 78.7017)" fill="#FF1B1A"/>
<rect width="54.0711" height="28.3652" transform="translate(20.79 27.4797)" fill="#FF1B1A"/>
</svg>
