<svg width="167" height="53" viewBox="0 0 167 53" fill="none" xmlns="http://www.w3.org/2000/svg">
<path d="M166.638 52.4667H157.172V48.3333C154.727 51.4444 151.194 53 146.572 53C143.372 53 140.46 52.2444 137.838 50.7333C135.26 49.2222 133.216 47.0667 131.705 44.2667C130.238 41.4667 129.505 38.2222 129.505 34.5333C129.505 30.8444 130.238 27.6 131.705 24.8C133.216 22 135.26 19.8444 137.838 18.3333C140.46 16.8222 143.372 16.0667 146.572 16.0667C150.927 16.0667 154.327 17.5111 156.772 20.4V3H166.638V52.4667ZM148.305 44.4667C150.794 44.4667 152.86 43.5778 154.505 41.8C156.149 39.9778 156.972 37.5556 156.972 34.5333C156.972 31.5111 156.149 29.1111 154.505 27.3333C152.86 25.5111 150.794 24.6 148.305 24.6C145.727 24.6 143.616 25.5111 141.972 27.3333C140.327 29.1111 139.505 31.5111 139.505 34.5333C139.505 37.5556 140.327 39.9778 141.972 41.8C143.616 43.5778 145.727 44.4667 148.305 44.4667Z" fill="white"/>
<path d="M119.151 11.6C117.328 11.6 115.84 11.0444 114.684 9.93334C113.528 8.82222 112.951 7.44445 112.951 5.8C112.951 4.15556 113.528 2.77778 114.684 1.66667C115.84 0.555556 117.328 0 119.151 0C120.973 0 122.44 0.533334 123.551 1.6C124.706 2.66667 125.284 4 125.284 5.6C125.284 7.33334 124.706 8.77778 123.551 9.93334C122.44 11.0444 120.973 11.6 119.151 11.6ZM124.084 16.6V52.4667H114.151V16.6H124.084Z" fill="white"/>
<path d="M94.5239 53C90.8795 53 87.6128 52.2222 84.7239 50.6666C81.835 49.0667 79.5684 46.8666 77.9239 44.0667C76.3239 41.2666 75.5239 38.0889 75.5239 34.5333C75.5239 30.9778 76.3239 27.8 77.9239 25C79.5684 22.2 81.835 20.0222 84.7239 18.4667C87.6128 16.8667 90.8795 16.0667 94.5239 16.0667C98.1239 16.0667 101.257 16.8667 103.924 18.4667C106.591 20.0222 108.546 22.2667 109.791 25.2L102.124 29.5333C100.391 26.2444 97.835 24.6 94.4573 24.6C91.8795 24.6 89.7461 25.4889 88.0573 27.2667C86.4128 29.0444 85.5906 31.4667 85.5906 34.5333C85.5906 37.6 86.4128 40.0222 88.0573 41.8C89.7461 43.5778 91.8795 44.4667 94.4573 44.4667C97.8795 44.4667 100.435 42.8222 102.124 39.5333L109.791 43.9333C108.546 46.8222 106.591 49.0667 103.924 50.6666C101.257 52.2222 98.1239 53 94.5239 53Z" fill="white"/>
<path d="M70.203 52.4668H60.8697V48.2001C59.5808 49.7557 58.0252 50.9557 56.203 51.8001C54.3808 52.6001 52.403 53.0001 50.2697 53.0001C45.8252 53.0001 42.2919 51.6445 39.6697 48.9334C37.0474 46.2223 35.7363 42.2001 35.7363 36.8668V16.6001H45.603V35.3334C45.603 41.1112 47.8919 44.0001 52.4697 44.0001C54.8697 44.0001 56.7808 43.2001 58.203 41.6001C59.6252 39.9557 60.3363 37.5334 60.3363 34.3334V16.6001H70.203V52.4668Z" fill="white"/>
<path d="M10.2667 5.80005V43.6667H32.4667V52.4667H0V5.80005H10.2667Z" fill="white"/>
</svg>
