<svg width="109" height="35" viewBox="0 0 109 35" fill="none" xmlns="http://www.w3.org/2000/svg">
<path d="M108.4 34.653H102.256V31.9703C100.669 33.9896 98.3757 34.9992 95.3756 34.9992C93.2986 34.9992 91.4091 34.5088 89.7072 33.528C88.034 32.5472 86.7071 31.1481 85.7263 29.3308C84.7743 27.5134 84.2983 25.4076 84.2983 23.0133C84.2983 20.619 84.7743 18.5132 85.7263 16.6958C86.7071 14.8785 88.034 13.4794 89.7072 12.4986C91.4091 11.5178 93.2986 11.0274 95.3756 11.0274C98.2026 11.0274 100.409 11.9649 101.996 13.84V2.54639H108.4V34.653ZM96.5006 29.4606C98.116 29.4606 99.4574 28.8837 100.525 27.7298C101.592 26.5471 102.126 24.9749 102.126 23.0133C102.126 21.0517 101.592 19.494 100.525 18.3401C99.4574 17.1574 98.116 16.566 96.5006 16.566C94.8275 16.566 93.4573 17.1574 92.3899 18.3401C91.3226 19.494 90.7889 21.0517 90.7889 23.0133C90.7889 24.9749 91.3226 26.5471 92.3899 27.7298C93.4573 28.8837 94.8275 29.4606 96.5006 29.4606Z" fill="#FF1B1A"/>
<path d="M77.5759 8.12867C76.3932 8.12867 75.4268 7.76808 74.6768 7.04691C73.9268 6.32573 73.5518 5.43148 73.5518 4.36414C73.5518 3.2968 73.9268 2.40255 74.6768 1.68137C75.4268 0.960197 76.3932 0.599609 77.5759 0.599609C78.7586 0.599609 79.7106 0.945774 80.4318 1.6381C81.1818 2.33043 81.5568 3.19584 81.5568 4.23433C81.5568 5.35936 81.1818 6.29689 80.4318 7.04691C79.7106 7.76808 78.7586 8.12867 77.5759 8.12867ZM80.7779 11.3739V34.6534H74.3306V11.3739H80.7779Z" fill="#FF1B1A"/>
<path d="M61.5928 34.9997C59.2274 34.9997 57.1071 34.4948 55.2321 33.4852C53.357 32.4467 51.8858 31.0188 50.8185 29.2014C49.78 27.3841 49.2607 25.3215 49.2607 23.0137C49.2607 20.706 49.78 18.6434 50.8185 16.8261C51.8858 15.0087 53.357 13.5952 55.2321 12.5856C57.1071 11.5471 59.2274 11.0278 61.5928 11.0278C63.9294 11.0278 65.9631 11.5471 67.694 12.5856C69.4248 13.5952 70.694 15.052 71.5017 16.9559L66.5256 19.7685C65.4006 17.6338 63.7419 16.5664 61.5495 16.5664C59.8764 16.5664 58.4918 17.1434 57.3956 18.2973C56.3282 19.4511 55.7946 21.0233 55.7946 23.0137C55.7946 25.0042 56.3282 26.5763 57.3956 27.7302C58.4918 28.8841 59.8764 29.461 61.5495 29.461C63.7708 29.461 65.4295 28.3937 66.5256 26.259L71.5017 29.1149C70.694 30.9899 69.4248 32.4467 67.694 33.4852C65.9631 34.4948 63.9294 34.9997 61.5928 34.9997Z" fill="#FF1B1A"/>
<path d="M45.8069 34.6525H39.749V31.8832C38.9124 32.8929 37.9028 33.6717 36.7201 34.2198C35.5373 34.7391 34.2536 34.9987 32.869 34.9987C29.9843 34.9987 27.691 34.1189 25.989 32.3592C24.287 30.5995 23.436 27.9889 23.436 24.5273V11.373H29.8401V23.532C29.8401 27.2821 31.3257 29.1572 34.2969 29.1572C35.8547 29.1572 37.0951 28.638 38.0182 27.5995C38.9413 26.5321 39.4028 24.96 39.4028 22.883V11.373H45.8069V34.6525Z" fill="#FF1B1A"/>
<path d="M6.90584 4.36523V28.9428H21.3149V34.6545H0.242188V4.36523H6.90584Z" fill="#FF1B1A"/>
</svg>
