<svg width="57" height="51" viewBox="0 0 57 51" fill="none" xmlns="http://www.w3.org/2000/svg">
<rect width="16.8083" height="22.0032" rx="8.40413" transform="matrix(0.930839 0.365429 -0.328356 0.944554 41.0518 3.76001)" fill="#FF1B1A"/>
<rect width="17.0805" height="22.6888" rx="8.54027" transform="matrix(0.999945 0.0105137 -0.00931002 0.999957 20.7002 0.534912)" fill="#FF1B1A"/>
<rect width="16.8775" height="22.285" rx="8.43873" transform="matrix(0.918114 0.396316 0.373038 -0.927816 0.5 41.0781)" fill="#FF1B1A"/>
<rect width="17.1214" height="22.6406" rx="8.5607" transform="matrix(0.978895 -0.204363 0.181786 0.983338 2.04248 7.42261)" fill="#FF1B1A"/>
<rect width="17.0805" height="24.303" rx="8.54027" transform="matrix(0.999945 -0.0105137 -0.00931002 -0.999957 20.6611 49.9724)" fill="#FF1B1A"/>
<rect width="24" height="17" transform="translate(17 17.0002)" fill="#FF1B1A"/>
<rect width="15.4417" height="12.3212" transform="translate(20.5391 18.4563)" fill="#FF1B1A"/>
<path d="M22.8711 22.7634C24.514 24.6802 28.9499 27.3636 33.55 22.7634" stroke="black" stroke-width="0.912727" stroke-linecap="round"/>
<rect x="24.4678" y="20.2092" width="1.82545" height="1.82545" rx="0.912727" fill="black"/>
<rect x="30.127" y="20.2092" width="1.82545" height="1.82545" rx="0.912727" fill="black"/>
<rect width="17.2085" height="22.5271" rx="8.60424" transform="matrix(0.930839 -0.365429 -0.328356 -0.944554 40.9819 50.4653)" fill="#FF1B1A"/>
<path d="M23.9226 24.6408C25.9214 24.6408 27.5336 23.0906 27.5664 21.2217C27.8335 21.1304 28.1151 21.0839 28.3988 21.0842C28.6479 21.0842 28.9494 21.1216 29.2311 21.2217C29.264 23.1096 30.8761 24.6408 32.8749 24.6408C34.769 24.6408 36.3158 23.2717 36.5057 21.528H37.2856C37.5805 21.528 37.6984 21.3592 37.6984 21.1279V20.8904C37.6984 20.6528 37.5805 20.4903 37.2856 20.4903H36.4596C36.1254 18.9027 34.6508 17.6902 32.8746 17.6902C31.1707 17.6902 29.7419 18.809 29.3423 20.3155C29.0408 20.203 28.6867 20.1653 28.3984 20.1653C28.1101 20.1653 27.7561 20.203 27.4549 20.3155C27.0483 18.809 25.6198 17.6902 23.9223 17.6902C22.1464 17.6902 20.6718 18.9027 20.3373 20.4903H19.512C19.2104 20.4903 19.0991 20.6528 19.0991 20.8904V21.1279C19.0991 21.3592 19.2104 21.528 19.512 21.528H20.2918C20.3867 22.383 20.8102 23.1743 21.4807 23.7491C22.1512 24.3239 23.0211 24.6415 23.9226 24.6408ZM23.9226 23.7032C23.5731 23.7034 23.227 23.638 22.904 23.5106C22.581 23.3831 22.2876 23.1962 22.0405 22.9605C21.7933 22.7247 21.5974 22.4449 21.4638 22.1368C21.3302 21.8288 21.2616 21.4987 21.262 21.1653C21.262 19.7653 22.4543 18.6281 23.9223 18.6281C25.384 18.6281 26.5833 19.7653 26.5833 21.1653C26.5847 21.4989 26.5169 21.8295 26.3837 22.138C26.2505 22.4465 26.0545 22.7268 25.8072 22.9627C25.5599 23.1986 25.266 23.3855 24.9425 23.5126C24.6191 23.6397 24.2725 23.7045 23.9226 23.7032ZM32.8749 23.7032C32.5251 23.7045 32.1784 23.6397 31.855 23.5126C31.5315 23.3855 31.2377 23.1986 30.9903 22.9627C30.743 22.7268 30.5471 22.4465 30.4139 22.138C30.2806 21.8295 30.2128 21.4989 30.2142 21.1653C30.2133 20.8319 30.2815 20.5015 30.4149 20.1933C30.5483 19.8851 30.7443 19.605 30.9916 19.3693C31.2388 19.1335 31.5325 18.9466 31.8557 18.8194C32.1789 18.6922 32.5252 18.6272 32.8749 18.6281C34.3429 18.6281 35.5359 19.7653 35.5359 21.1653C35.5362 21.4987 35.4676 21.8288 35.334 22.1368C35.2004 22.4449 35.0044 22.7248 34.7572 22.9605C34.51 23.1962 34.2166 23.3831 33.8936 23.5106C33.5706 23.638 33.2244 23.7034 32.8749 23.7032Z" fill="white"/>
</svg>
