<svg width="419" height="399" viewBox="0 0 419 399" fill="none" xmlns="http://www.w3.org/2000/svg">
<path d="M133.439 15.918C133.439 20.8744 129.707 27.7544 126.611 31.5394C124.268 34.4025 122.89 38.1118 120.585 40.823C115.934 46.2953 113.377 51.5474 109.963 57.6942C108.249 60.7782 106.57 63.464 111.391 61.7112C117.04 59.657 122.88 55.7173 127.816 52.249C132.482 48.9698 140.615 44.3706 146.294 44.0366C147.323 43.976 136.998 29.8017 136.028 27.9688C134.09 24.3079 123.799 21.3117 123.799 27.1654C123.799 29.1965 123.582 33.0183 122.594 34.7976C121.345 37.0447 119.264 40.665 118.978 43.2332C118.715 45.6063 115.765 50.5059 115.765 45.2863C115.765 43.7594 118.175 37.8042 118.175 40.823" stroke="#FFBC88" stroke-width="20" stroke-linecap="round"/>
<path d="M102.91 68.1386C102.224 68.2244 101.216 70.4595 101.75 70.4595C103.095 70.4595 106.581 66.9067 107.775 66.0855C112.739 62.6731 119.519 56.1627 125.405 54.481C127.588 53.8573 129.059 52.0741 131.029 51.0889C132.564 50.3215 134.308 50.1674 135.849 49.4821C138.866 48.1415 142.953 48.9417 145.49 47.2505" stroke="#FFBC88" stroke-width="20" stroke-linecap="round"/>
<path d="M167.182 95.4536C160.426 95.4536 153.455 98.3525 147.722 101.881C142.306 105.214 136.151 107.589 130.672 111.075C125.071 114.64 115.471 113.491 110.32 118.127C106.531 121.536 100.759 123.097 96.1265 124.42C90.8649 125.924 88.2651 133.656 83.2276 134.775C81.4838 135.163 78.9766 136.935 77.6039 138.033C74.7259 140.336 83.1445 138.891 83.6293 138.837C85.98 138.575 88.7632 136.589 91.0383 135.802C95.0243 134.422 99.2094 133.277 103.312 132.365C109.148 131.068 115.46 127.445 121.389 126.786C127.581 126.098 133.604 123.098 139.867 122.769C146.403 122.425 154.834 119.852 159.55 115.137C161.097 113.589 163.902 110.565 166.021 109.959C166.776 109.744 171.675 108.338 172.002 108.665C172.39 109.053 169.901 113.314 169.413 113.753C167.649 115.341 164.996 115.538 162.763 115.538C156.115 115.538 150.023 113.932 143.437 113.932C138.155 113.932 133.136 114.109 127.905 114.69C125.102 115.002 120.753 114.631 118.175 115.717C107.062 120.396 94.9028 119.944 84.4327 125.179" stroke="#FFBC88" stroke-width="20" stroke-linecap="round"/>
<path d="M73.988 146.871H73.1846" stroke="#FFBC88" stroke-width="20" stroke-linecap="round"/>
<path d="M55.5101 200.698C54.3193 202.059 58.6696 201.704 59.5271 201.323C62.5666 199.972 65.9903 199.367 69.1677 198.288C75.0224 196.299 80.8024 192.726 86.4852 191.102C90.959 189.824 94.9497 187.018 99.518 185.612C102.928 184.563 106.312 184.544 109.739 183.782C116.705 182.234 122.706 176.596 129.824 176.596C131.524 176.596 133.785 177.014 135.403 176.552C137.014 176.091 137.589 174.186 139.866 174.186C142.915 174.186 131.932 181.01 130.225 181.863C116.1 188.925 103.342 198.707 88.2706 204.09C80.8387 206.744 73.6264 210.678 66.7576 213.731C63.685 215.096 59.6196 214.75 56.7152 216.364C54.8768 217.385 51.1188 219.176 49.083 219.176" stroke="#FFBC88" stroke-width="20" stroke-linecap="round"/>
<path d="M49.083 205.518V209.535" stroke="#FFBC88" stroke-width="20" stroke-linecap="round"/>
<path d="M104.517 198.287C108.704 198.287 112.076 197.142 115.764 196.681C118.084 196.391 120.934 192.891 122.995 191.86" stroke="#FFBC88" stroke-width="20" stroke-linecap="round"/>
<path d="M90.8593 248.098C89.7382 248.098 86.7798 247.574 86.039 248.5C84.6323 250.258 88.2005 248.098 89.6542 248.098C93.8701 248.098 100.756 249.178 104.338 246.313C106.317 244.729 111.144 242.831 113.756 241.671C116.017 240.666 121.675 235.3 122.995 239.261" stroke="#FFBC88" stroke-width="20" stroke-linecap="round"/>
<path d="M109.337 248.098H134.242" stroke="#FFBC88" stroke-width="20" stroke-linecap="round"/>
<path d="M73.9883 245.688C77.1771 245.688 80.2828 244.884 83.629 244.884" stroke="#FFBC88" stroke-width="20" stroke-linecap="round"/>
<path d="M34.6224 236.85C40.2311 237.473 43.5823 244.173 48.7263 245.643C55.4488 247.563 60.5003 255.591 66.758 258.72C70.1309 260.407 73.4989 260.148 77.2467 260.148C80.2559 260.148 83.2648 260.487 86.0393 261.755C87.0924 262.237 90.2321 262.176 90.8596 262.96C91.9542 264.328 99.6733 264.923 101.304 264.969C105.253 265.078 108.909 265.57 112.551 265.772C119.915 266.181 127.037 268.986 134.644 268.986C135.846 268.986 137.461 268.7 138.617 269.03C140.625 269.604 137.143 272.163 136.474 272.378C131.333 274.03 126.315 274.353 121.21 276.395C118.922 277.31 117.594 281.145 115.318 281.795C111.842 282.789 108.429 279.335 105.321 278.225C98.744 275.876 91.4056 273.003 84.4325 273.003C74.5914 273.003 64.2599 266.626 55.5105 262.737C51.0352 260.748 44.2802 259.768 41.0495 255.73C39.1872 253.402 31.3944 246.854 28.1953 248.276C26.0996 249.207 24.0961 250.193 23.4196 252.561C22.9849 254.082 23.1776 255.079 21.9467 256.31C21.2166 257.04 19.4473 257.107 19.4473 258.14C19.4473 260.544 28.3445 262.559 29.9806 262.559C33.6498 262.559 37.3857 262.355 41.0495 262.559C43.2962 262.683 46.7658 264.306 48.6817 265.37C49.8789 266.036 55.1952 267.822 53.4574 268.138C50.4022 268.693 38.5501 267.478 38.5501 266.085C38.5501 263.38 23.2936 258.814 35.4258 265.951C40.3348 268.838 45.6944 269.438 51.0919 270.637C54.1502 271.317 56.2451 272.199 59.5275 272.199C61.6719 272.199 66.1633 272.366 67.7399 273.627C69.1956 274.792 74.0761 275.413 75.9969 275.413C79.1642 275.413 81.9173 273.806 84.8342 273.806C88.564 273.806 92.0503 274.428 95.68 274.609C98.2698 274.739 102.961 274.989 105.321 276.038C112.553 279.252 120.648 278.91 128.173 280.278C130.784 280.753 134.234 281.698 136.653 281.84C139.466 282.005 132.262 282.72 131.029 283.268C126.385 285.332 117.274 283.447 112.149 283.447C104.167 283.447 96.1439 280.961 88.4495 279.251C82.8921 278.016 77.3946 276.661 71.98 275.457C68.8606 274.764 64.7497 275.413 61.5806 275.413C56.0499 275.413 39.5358 273.806 45.0665 273.806C51.8442 273.806 58.8142 273.32 64.7495 276.618C69.6099 279.318 75.5961 281.037 81.219 281.037C83.6391 281.037 86.389 282.944 88.8512 283.491C91.7696 284.14 94.7683 284.449 97.6885 285.098C103.742 286.443 110.179 287.464 116.568 287.464C119.49 287.464 121.744 286.016 124.602 285.857C127.527 285.694 130.509 285.857 133.439 285.857" stroke="#FFBC88" stroke-width="20" stroke-linecap="round"/>
<path d="M73.9879 285.857C63.188 285.857 55.5666 279.544 46.2709 275.413C42.7795 273.861 39.4628 271.445 35.8269 270.637C33.5092 270.122 26.5879 264.862 26.5879 262.559" stroke="#FFBC88" stroke-width="20" stroke-linecap="round"/>
<path d="M87.6455 101.077C93.4469 101.077 103.95 97.7063 108.534 93.8467C112.654 90.3773 119.568 92.0891 123.619 88.8478C125.235 87.5557 128.499 87.1337 130.627 86.6608C133.577 86.0053 136.88 84.3817 139.866 84.206C142.252 84.0657 154.512 79.9578 155.086 77.3772C155.542 75.3251 155.666 71.0576 153.523 69.9236C150.395 68.2675 148.446 72.4354 145.891 73.0032C140.268 74.2529 134.009 76.2121 129.02 78.984C124.287 81.6135 118.018 84.7318 112.952 85.8574C110.066 86.4989 98.893 90.1463 98.893 93.0433" stroke="#FFF7A4" stroke-width="20" stroke-linecap="round"/>
<path d="M63.5439 161.331C56.8226 161.331 77.1526 161.345 83.6287 159.546C89.772 157.84 95.5492 154.38 101.75 153.253C113.337 151.146 125.063 148.706 136.251 145.264C141.549 143.633 146.548 140.443 152.095 140.443C156.425 140.443 163.049 139.911 167.181 138.435C172.644 136.484 175.101 136.772 177.447 142.05C179.697 147.113 167.613 145.25 165.664 146.469C163.94 147.546 160.812 147.559 158.746 148.477C156.272 149.577 153.354 151.059 150.712 151.646C146.637 152.552 139.764 154.743 136.474 157.136C132.908 159.73 125.799 158.764 122.236 161.733C117.811 165.42 109.718 166.14 104.517 168.74C95.4942 173.252 85.0286 174.635 75.5948 178.827C72.6516 180.136 65.6194 180.689 62.3835 179.765C60.286 179.165 66.1711 170.538 66.7575 169.365" stroke="#FFF7A4" stroke-width="20" stroke-linecap="round"/>
<path d="M54.707 235.243C61.0066 235.243 66.0131 228.387 72.3816 228.013C77.9991 227.682 83.3751 222.044 88.8511 220.827C91.5344 220.231 93.5877 217.739 96.4833 217.569C98.9045 217.426 102.608 215.876 104.963 215.203C107.826 214.385 111.05 214.913 113.533 212.927C114.638 212.043 120.749 211.142 122.192 211.142" stroke="#FFF7A4" stroke-width="20" stroke-linecap="round"/>
<path d="M115.327 16.6558C109.298 25.5992 104.87 35.5668 101.575 45.825C96.2452 62.416 89.7151 78.4959 83.9686 94.9748C78.5014 110.653 72.8587 126.169 66.4239 141.473C62.3068 151.265 57.3776 160.682 53.5043 170.58C47.2938 186.452 42.2261 203.051 38.1797 219.237" stroke="black" stroke-width="10" stroke-linecap="round"/>
<path d="M118.656 14.4359C124.961 22.7584 135.666 18.8215 143.077 13.8809" stroke="black" stroke-width="10" stroke-linecap="round"/>
<path d="M144.742 12.7705C146.386 18.9806 147.759 25.5185 150.323 31.3944C153.72 39.1787 155.775 47.8116 159.851 55.2601C164.401 63.5753 166.589 72.9092 169.44 81.9009C172.662 92.0625 176.148 102.293 180.017 112.242C183.551 121.331 186.392 130.851 189.699 140.054C193.016 149.29 196.004 158.638 199.381 167.867C201.271 173.035 202.466 178.509 204.437 183.592C205.333 185.903 206.824 192.556 209.124 193.706" stroke="black" stroke-width="10" stroke-linecap="round"/>
<path d="M37.625 228.672C62.0983 253.626 100.29 260.308 133.92 260.308C139.612 260.308 145.455 260.374 151.095 259.507C156.105 258.736 162.034 258.512 166.636 256.3C172.633 253.417 179.619 253.523 185.259 249.763" stroke="black" stroke-width="10" stroke-linecap="round"/>
<path d="M39.2882 223.677C34.4567 225.681 29.133 228.984 25.1044 232.28C21.9634 234.85 17.9363 237.959 15.7 241.438C12.554 246.332 8.83595 250.575 5.9872 255.56C3.81798 259.356 5.56628 262.722 7.92976 266.136C12.3027 272.452 20.0585 275.645 26.0295 280.289C28.3828 282.119 31.2323 283.791 34.0464 284.729C39.3681 286.503 44.3498 289.27 49.8952 290.31C56.1727 291.487 62.2655 293.803 68.5808 295.028C75.2431 296.319 81.5732 297.819 88.3764 298.327C110.213 299.957 131.416 301.095 153.252 298.327C170.806 296.102 187.03 293.54 203.203 286.702C217.734 280.56 232.978 276.639 245.384 266.66C249.135 263.643 252.405 259.838 252.97 254.758C253.303 251.761 255.446 248.57 252.846 245.755C250.8 243.537 248.914 241.575 246.865 239.526C243.107 235.769 238.519 231.993 234.099 229.782" stroke="black" stroke-width="10" stroke-linecap="round"/>
<path d="M156.951 57.1719C150.566 57.4495 144.251 60.8557 138.296 62.9687C132.697 64.9554 127.507 68.4352 121.769 69.9064C117.687 70.9531 113.768 72.8344 109.836 74.3466C105.11 76.1641 99.0232 77.6598 94.7891 80.4826" stroke="black" stroke-width="10" stroke-linecap="round"/>
<path d="M170.278 89.3628C167.573 90.9482 164.472 91.301 161.459 92.0145C158.275 92.7688 155.381 94.1057 152.178 94.7896C142.732 96.8063 133.464 99.7341 124.335 102.868C121.542 103.827 118.526 104.954 115.608 105.427C110.95 106.183 106.318 107.497 102.011 109.22C96.3857 111.47 90.118 113.493 84.25 115.449" stroke="black" stroke-width="10" stroke-linecap="round"/>
<path d="M181.374 123.219C180.948 124.639 178.751 124.886 177.582 125.223C174.109 126.224 170.784 127.64 167.314 128.646C155.721 132.004 144.09 135.783 132.348 138.513C119.538 141.49 106.83 144.577 94.0207 147.362C84.0761 149.524 73.6651 152.205 64.2656 155.965" stroke="black" stroke-width="10" stroke-linecap="round"/>
<path d="M190.81 151.525C168.587 160.9 144.332 163.885 121.125 170.087C106.059 174.113 91.3263 179.616 76.1067 183.038C72.0664 183.946 68.4953 185.552 64.5747 186.768C61.7033 187.66 58.407 188.311 55.6944 189.544C53.8263 190.393 51.5786 190.615 49.8359 191.486" stroke="black" stroke-width="10" stroke-linecap="round"/>
<path d="M193.194 180C182.837 183.729 172.625 187.826 162.237 191.532C147.618 196.747 132.977 201.723 118.267 206.764C107.465 210.466 96.5899 213.956 85.6444 217.186C81.8898 218.294 78.3192 219.843 74.4824 220.64C69.6231 221.648 64.5578 224.011 59.867 225.635C58.1955 226.213 56.5526 226.802 54.8718 227.3C53.4931 227.708 51.3221 228.841 50 228.841" stroke="black" stroke-width="10" stroke-linecap="round"/>
<path d="M203.194 197C192.837 200.729 182.625 204.826 172.237 208.532C157.618 213.747 142.977 218.723 128.267 223.764C117.465 227.466 106.59 230.956 95.6444 234.186C91.8898 235.294 88.3192 236.843 84.4824 237.64C79.6231 238.648 74.5578 241.011 69.867 242.635C68.1955 243.213 66.5526 243.802 64.8718 244.3C63.4931 244.708 61.3221 245.841 60 245.841" stroke="black" stroke-width="10" stroke-linecap="round"/>
<path d="M121.985 11.1054C121.03 10.5322 126.588 6.76899 127.658 6.11021C129.528 4.95956 131.792 5.00018 133.918 5.00018C137.128 5.00018 139.741 6.66082 141.965 8.88529" stroke="black" stroke-width="10" stroke-linecap="round"/>
<rect width="94.769" height="133.945" rx="47.3845" transform="matrix(0.999945 -0.0104438 -0.00937233 -0.999956 218.953 398.191)" fill="#FF1B1A"/>
<rect width="94.9696" height="124.811" rx="47.4848" transform="matrix(0.979166 -0.203061 0.182962 0.98312 115.656 163.687)" fill="#FF1B1A"/>
<rect width="93.5448" height="122.938" rx="46.7724" transform="matrix(0.919071 0.394092 0.375184 -0.92695 107.094 349.17)" fill="#FF1B1A"/>
<rect width="94.769" height="125.049" rx="47.3845" transform="matrix(0.999945 0.0104438 -0.00937233 0.999956 219.172 125.724)" fill="#FF1B1A"/>
<rect width="93.1758" height="121.358" rx="46.5879" transform="matrix(0.931664 0.363321 -0.330315 0.943871 332.094 143.492)" fill="#FF1B1A"/>
<rect width="95.3944" height="124.247" rx="47.6972" transform="matrix(0.931664 -0.363321 -0.330315 -0.943871 330.133 388.656)" fill="#FF1B1A"/>
<rect width="180.652" height="94.7684" transform="translate(173.539 217.531)" fill="#FF1B1A"/>
<path d="M296.094 288.724C284.401 274.386 252.832 254.313 220.094 288.724" stroke="black" stroke-width="10" stroke-linecap="round"/>
<rect x="216.594" y="236.724" width="20" height="20" rx="10" fill="black"/>
<rect x="278.594" y="236.724" width="20" height="20" rx="10" fill="black"/>
</svg>
