<svg width="143" height="200" viewBox="0 0 143 200" fill="none" xmlns="http://www.w3.org/2000/svg">
<path d="M116.467 176.942C117.418 176.823 117.27 176.135 117.27 175.335" stroke="#CCCCCC" stroke-width="20" stroke-linecap="round"/>
<path d="M74.6904 151.233C83.6313 151.233 90.0754 144.846 96.7836 139.629C102.286 135.349 109.384 133.372 115.976 131.907C117.103 131.657 122.894 128.472 122.894 130.747C122.894 134.256 123.697 137.879 123.697 141.592C123.697 149.428 122.894 157.263 122.894 164.891" stroke="#CCCCCC" stroke-width="20" stroke-linecap="round"/>
<path d="M123.697 176.942C123.697 180.044 123.574 183.219 122.715 186.225C121.95 188.904 116.537 184.336 115.262 183.726C109.625 181.03 105.717 176.351 100.577 172.925C97.4994 170.873 94.5349 168.906 91.5616 166.676C90.2516 165.694 86.8131 164.78 85.9379 163.686C83.4699 160.601 79.5107 163.161 79.5107 157.661C79.5107 151.261 87.7653 152.246 92.0079 150.832C94.5515 149.984 98.9051 149.627 101.604 149.627C102.993 149.627 104.569 147.318 106.023 146.592C110.847 144.179 105.662 153.266 105.264 156.054C104.759 159.587 104.416 162.802 104.416 166.498" stroke="#CCCCCC" stroke-width="20" stroke-linecap="round"/>
<path d="M61.8682 41C59.8317 40.7378 55.9676 35.1097 54.739 33.3303C53.0278 30.8521 48.2429 31.3231 46.8176 28.0206C43.5118 20.3606 50.9865 17.7082 55.7575 17.4011C58.6317 17.2161 69.1881 15.7854 68.9974 19.761C68.7473 24.9771 64.9236 29.2115 64.9236 35.1003" stroke="#F2F2F2" stroke-width="20" stroke-linecap="round"/>
<path d="M66 44C66 45.1912 65.992 46.2039 66.2735 47.25C66.4774 48.0078 66.6334 48.849 66.8034 49.6273C66.9423 50.2628 67.2679 50.319 67.4188 50.7708C68.1123 52.8461 68.2127 55.128 68.8462 57.1354C69.1523 58.1054 69.4359 59.0989 69.6923 60.1146C69.9815 61.26 69.9997 62.3612 70.2308 63.5C70.4404 64.5334 70.9395 65.8641 71.0684 66.8854C71.1544 67.5667 71.6625 69.703 72 70" stroke="#F2F2F2" stroke-width="20" stroke-linecap="round"/>
<path d="M94 114C94 115.191 93.992 116.204 94.2735 117.25C94.4774 118.008 94.6334 118.849 94.8034 119.627C94.9423 120.263 95.2679 120.319 95.4188 120.771C96.1123 122.846 96.2127 125.128 96.8462 127.135C97.1523 128.105 97.4359 129.099 97.6923 130.115C97.9815 131.26 97.9997 132.361 98.2308 133.5C98.4404 134.533 98.9395 135.864 99.0684 136.885C99.1544 137.567 99.6625 139.703 100 140" stroke="#F2F2F2" stroke-width="20" stroke-linecap="round"/>
<path d="M59.1641 47.3345C59.5079 53.6949 61.0387 61.3278 63.0498 67.3611C64.1047 70.5257 65.8894 75.1424 65.8894 78.2712" stroke="black" stroke-width="10" stroke-linecap="round"/>
<path d="M72.6172 42.627C74.4125 42.8514 79.3426 63.9677 79.3426 68.1833" stroke="black" stroke-width="10" stroke-linecap="round"/>
<path d="M82.7031 119.296C83.2569 124.28 85.5732 129.246 88.0834 133.569C90.1011 137.043 90.7839 140.494 93.3143 143.657C96.9614 148.216 104.053 143.913 107.923 140.817C110.272 138.938 109.522 126.596 108.596 124.004C106.421 117.915 103.754 113.211 100.189 107.863" stroke="black" stroke-width="10" stroke-linecap="round"/>
<path d="M85.4568 133.343C82.3233 135.002 79.2894 137.279 76.4931 139.454C73.4376 141.831 69.0064 144.334 66.7144 147.445C64.5332 150.405 62.7053 152.555 63.0701 156.567C63.4583 160.838 68.7207 165.04 71.9433 167.296C76.414 170.426 80.4227 174.234 84.6193 177.731C88.7688 181.189 94.0463 183.088 98.5403 185.948C101.459 187.805 104.921 188.521 108.183 189.57C111.603 190.669 114.632 192.212 118.188 193.033C119.934 193.436 121.627 194.057 123.394 194.369C124.995 194.651 125.303 193.488 126.224 192.399C131.594 186.053 134.662 176.163 135.663 168.156C136.996 157.493 138.321 145.907 136.704 135.199C136.04 130.799 135.99 121.668 131.498 119.173C129.059 117.817 124.603 118.519 121.719 118.675C120.539 118.738 118.034 119.472 117.011 120.123C115.362 121.173 113.263 121.304 111.533 122.342" stroke="black" stroke-width="10" stroke-linecap="round"/>
<path d="M58.1606 48.5943C56.5957 48.452 55.0143 47.7484 53.4976 47.372C51.2999 46.8265 48.8378 46.6578 46.7522 45.7422C43.9603 44.5165 41.9625 42.95 39.6445 40.9887C35.0229 37.0781 36.0792 30.6238 36.1586 25.1436C36.2167 21.1394 38.9942 16.206 42.3608 13.9616C47.8181 10.3234 53.7577 8.35195 60.0393 6.62759C63.0178 5.80997 71.207 3.76675 73.8924 6.03906C77.4798 9.07455 77.6662 13.679 78.1027 18.2624C78.3994 21.3777 78.1253 24.6776 78.1253 27.8147C78.1253 30.5563 76.5165 32.6412 75.6807 35.1487" stroke="black" stroke-width="10" stroke-linecap="round"/>
<path d="M109.281 156.82C110.785 159.922 112.261 163.019 113.094 166.351" stroke="black" stroke-width="10" stroke-linecap="round"/>
<path d="M5.37402 96.253C23.0704 96.253 41.0819 97.714 57.1593 89.2287C64.4397 85.3863 68.1107 77.2312 73.6738 71.668C78.6534 66.6885 85.264 61.9536 92.4675 61.9536C101.099 61.9536 101.016 66.7009 103.041 73.5362C105.462 81.7057 102.046 90.7751 96.017 96.4024C91.9495 100.199 86.071 104.31 81.2212 107.014C75.6614 110.112 69.7323 111.853 63.8847 114.411C54.8411 118.368 44.7409 119.792 34.9283 119.792C28.8116 119.792 22.7875 117.102 16.8071 117.102" stroke="black" stroke-width="10" stroke-linecap="round"/>
</svg>
