<svg width="75" height="69" viewBox="0 0 75 69" fill="none" xmlns="http://www.w3.org/2000/svg">
<path d="M52.9677 24.3039C52.0064 22.2682 51.7212 19.928 51.4692 17.7161C51.2731 15.9946 50.9551 14.2916 51.4126 12.5985C51.8812 10.8648 53.9709 10.9124 55.1307 9.92662C55.449 9.65603 55.7777 9.57482 56.1485 9.38942C56.6179 9.15472 56.5718 9.20629 56.6857 9.91248C56.8812 11.1243 57.1585 12.3368 57.3219 13.5457C57.6477 15.9569 58.1842 18.2875 58.1842 20.7414C58.1842 21.0921 58.3522 21.1349 58.679 21.123C59.728 21.0849 60.8486 20.8526 61.8881 20.6707C62.8901 20.4953 63.9468 20.2891 64.9629 20.2395C65.3248 20.2218 66.2261 20.3281 66.5109 20.084C66.7824 19.8513 66.7088 18.6249 66.7088 18.2886C66.7088 17.3273 66.7088 16.366 66.7088 15.4047C66.7088 13.8567 66.7088 12.3087 66.7088 10.7607C66.7088 10.3926 66.4836 8.6543 66.9633 8.6543C68.8868 8.6543 70.1672 10.874 70.964 12.3228C71.4889 13.2771 72.0869 14.2353 72.4342 15.2774C72.9458 16.812 73.0704 18.4353 73.0704 20.0486C73.0704 21.2382 73.2305 22.4002 72.6887 23.4839C72.3 24.2614 71.7855 24.8194 71.2609 25.5055C70.7055 26.2318 70.0048 26.7021 69.3807 27.3574C69.0411 27.7139 68.4277 28.0616 68.2073 28.5025C67.8205 29.276 67.6569 30.4257 67.4722 31.2733C67.17 32.6599 67.1127 34.0583 66.935 35.4579C66.7277 37.0904 66.7254 38.8619 66.7088 40.5047C66.6868 42.6766 66.7088 44.8498 66.7088 47.0219C66.7088 49.2514 66.8562 51.5638 67.5994 53.6874C67.8562 54.4211 68.1083 55.4169 68.1083 56.1826C68.1083 56.9145 68.2356 57.6138 68.2356 58.3385C68.2356 58.7571 68.129 59.3333 68.2426 59.7309C68.5558 60.827 68.2056 61.8373 66.8502 61.8373C64.8318 61.8373 62.7655 61.8948 60.7854 61.4486C59.959 61.2623 59.1429 61.0406 58.3115 60.876C58.0953 60.8332 57.8981 60.8436 57.8025 60.6286C57.5245 60.0032 57.4208 59.3548 57.4208 58.6565" stroke="black" stroke-width="2.09779" stroke-linecap="round"/>
<path d="M57.5479 35.2461C57.5479 36.0806 57.7989 37.2859 57.9932 38.1017C58.1536 38.7756 58.2549 39.4578 58.4102 40.1375C58.6289 41.0942 58.5638 42.1001 58.7566 43.0638C58.9417 43.9894 58.9022 45.182 58.8131 46.1174C58.6863 47.449 58.4772 48.7812 58.1911 50.0686C58.0063 50.9002 58.0599 51.6528 57.6751 52.4224" stroke="black" stroke-width="2.09779" stroke-linecap="round"/>
<path d="M62.1806 53.4824C61.6101 53.9579 60.7246 54.5707 60.5549 55.3344C60.3871 56.0893 61.0294 56.5221 61.29 57.1085C61.4811 57.5386 62.4147 57.6192 62.8168 57.78C63.4374 58.0283 63.5534 57.5753 63.8983 57.2994C64.3471 56.9403 64.3578 55.3629 64.1174 54.882C63.8649 54.377 62.9132 53.9759 62.4351 53.7369" stroke="black" stroke-width="2.09779" stroke-linecap="round"/>
<rect width="18.8716" height="26.673" rx="9.43582" transform="matrix(0.999945 -0.0104438 -0.00937234 -0.999956 22.2754 68.8867)" fill="#FF1B1A"/>
<rect width="18.9116" height="24.8539" rx="9.45579" transform="matrix(0.979166 -0.203061 0.182962 0.98312 1.70508 22.1895)" fill="#FF1B1A"/>
<rect width="18.6279" height="24.4811" rx="9.31394" transform="matrix(0.919071 0.394092 0.375184 -0.92695 0 59.125)" fill="#FF1B1A"/>
<rect width="18.8716" height="24.9013" rx="9.43582" transform="matrix(0.999945 0.0104438 -0.00937234 0.999956 22.3184 14.6289)" fill="#FF1B1A"/>
<rect width="18.5544" height="24.1663" rx="9.27719" transform="matrix(0.931664 0.36332 -0.330315 0.943871 44.8047 18.168)" fill="#FF1B1A"/>
<rect width="18.9962" height="24.7418" rx="9.49809" transform="matrix(0.931664 -0.36332 -0.330315 -0.943871 44.4141 66.9863)" fill="#FF1B1A"/>
<rect width="35.9739" height="18.8715" transform="translate(13.2324 32.9121)" fill="#FF1B1A"/>
<rect x="22.2637" y="36.9395" width="4.19559" height="4.19559" rx="2.09779" fill="black"/>
<rect x="35.2705" y="36.9395" width="4.19559" height="4.19559" rx="2.09779" fill="black"/>
<path d="M18.3828 43.4434C22.1588 47.8487 32.3541 54.0162 42.927 43.4434" stroke="black" stroke-width="2.09779" stroke-linecap="round"/>
<path d="M32.2672 8.21819C31.5258 9.5824 30.9226 11.0605 30.4294 12.5299C30.0732 13.5911 29.6428 14.9704 29.9204 16.1207C30.0576 16.6888 31.326 15.5511 31.4614 15.4139C32.4969 14.3642 32.662 12.5812 32.6065 11.1799C32.5913 10.7962 32.4594 9.71387 32.0127 9.49051C31.4608 9.21458 30.0656 10.2519 29.6872 10.5437C27.8916 11.9282 27.2891 14.1767 27.5737 16.3823C27.6544 17.0075 29.0151 16.4216 29.2984 16.3045C30.2193 15.924 30.9299 15.1632 31.4331 14.3183C31.9642 13.4265 33.3693 10.0344 32.1258 9.13002C31.6519 8.78535 30.7291 9.03343 30.2597 9.20778C28.6613 9.80147 27.2963 11.0267 26.2943 12.3815C25.6533 13.2482 25.2456 14.1928 25.1704 15.2725C25.1292 15.8655 25.0132 16.8722 25.5663 17.287C26.1727 17.7419 27.2228 17.6442 27.9271 17.6334C29.2197 17.6135 30.5262 17.4357 31.5603 16.5872C33.0014 15.4048 32.7299 12.837 32.5853 11.1587C32.5134 10.3256 32.2688 9.58225 32.147 8.79074C32.1062 8.5256 32.0127 8.36063 32.0127 8.08389C32.0127 7.48281 32.2067 6.46988 31.8784 5.97749C31.7304 5.75541 31.5038 5.50912 31.5038 5.22824C31.5038 5.01062 31.5102 5.61108 31.4402 5.73717C30.8235 6.84722 29.743 7.1799 28.8955 8.02734C28.4928 8.43003 28.0183 8.76319 27.6161 9.16536C26.8629 9.91862 25.9284 10.757 25.333 11.6676C24.6317 12.7402 23.7984 14.0837 23.3609 15.2866C23.0537 16.1315 22.2635 16.7666 22.0957 17.6899C22.0091 18.1659 21.9614 18.6075 21.9614 19.0965C21.9614 19.4948 21.8452 19.9429 22.1876 20.2063C22.8594 20.7231 24.0851 20.4686 24.8877 20.6587C25.3889 20.7774 25.7812 20.8142 26.3155 20.8142C27.7016 20.8142 29.0789 20.9237 30.4576 20.9414C31.2476 20.9515 31.8209 20.9395 32.5499 20.7152C33.4802 20.429 34.4405 20.4258 35.3773 20.588C36.3963 20.7643 37.4851 21.3939 38.5016 21.4503C39.5512 21.5087 40.5544 21.3231 41.5834 21.3231C42.0962 21.3231 42.4611 21.4086 42.0782 20.7576C41.5814 19.913 40.893 19.2016 40.3818 18.3685C39.8391 17.4842 39.5542 16.4164 39.5194 15.3715C39.4483 13.2388 38.9683 11.3876 37.4837 9.81566C36.3059 8.56855 36.4702 6.7421 34.5574 6.21075C33.7427 5.98446 32.2355 5.80133 32.0127 4.91016" stroke="#F3DE53" stroke-width="4.19559" stroke-linecap="round"/>
<path d="M34.6844 8.59961C34.6987 10.7287 34.5418 12.9614 35.1368 15.0319C35.4506 16.1241 35.6754 17.2557 36.0345 18.3329C36.4122 19.4662 37.0233 20.5187 37.5401 21.5914C37.5813 21.677 37.9728 22.742 38.1197 22.5951" stroke="#F3DE53" stroke-width="4.19559" stroke-linecap="round"/>
<path d="M37.7383 22.084C36.9164 22.1273 36.1025 22.2113 35.2785 22.2113C35.0605 22.2113 34.796 22.1749 34.5858 22.2396C34.201 22.3579 33.9724 22.593 33.5396 22.593C32.1387 22.593 30.6903 21.9902 29.2844 21.8296C27.6008 21.6372 26.0529 21.1934 24.3436 21.1934C23.6808 21.1934 22.0956 20.6708 21.707 21.4479" stroke="#F3DE53" stroke-width="4.19559" stroke-linecap="round"/>
<path d="M23.234 14.5798C23.5518 14.1258 22.9889 12.7733 22.9795 12.1907C22.9663 11.3703 23.0815 11.0327 23.5521 10.3811C23.8105 10.0232 24.1119 9.60096 24.5346 9.41983C24.8611 9.27987 25.3304 9.12281 25.5242 8.78367C25.6703 8.52792 26.0173 8.36124 26.231 8.14751C26.5952 7.78333 26.9178 7.34978 27.3337 7.04483C27.9718 6.57685 28.8864 5.80078 29.7228 5.80078" stroke="#F3DE53" stroke-width="4.19559" stroke-linecap="round"/>
<path d="M37.3564 13.6895C37.5898 14.6746 37.7381 15.6104 37.7381 16.6158" stroke="#F3DE53" stroke-width="4.19559" stroke-linecap="round"/>
<path d="M29.8967 17.9792C29.5228 18.0812 29.2432 18.5678 29.0158 18.8601C28.583 19.4165 28.1677 20.011 28.1526 20.7363C28.1389 21.3926 28.1805 21.909 28.5093 22.4936C28.7357 22.8959 28.8383 23.4484 29.2713 23.7268C29.857 24.1033 30.6164 24.3824 31.2884 24.5416C31.6489 24.6269 32.4575 24.7864 32.8299 24.6208C33.2645 24.4277 33.5985 23.9989 33.8958 23.6475C34.1414 23.3572 34.5677 22.8236 34.6489 22.4584C34.7503 22.0021 35.006 21.5759 35.1113 21.1151C35.1997 20.7284 35.2082 20.2802 35.2082 19.8819C35.2082 19.2824 34.7584 18.6517 34.2041 18.4196C33.8896 18.288 33.5898 18.1349 33.266 18.0629C32.9879 18.0011 32.6709 18.0304 32.3983 17.9396C32.1541 17.8582 31.8178 17.8883 31.5615 17.8999C31.004 17.9253 30.16 17.9665 29.6589 18.217" stroke="black" stroke-width="2.09779" stroke-linecap="round"/>
<path d="M26.9615 20.4375C25.1932 20.5408 23.4031 20.3856 21.6411 20.5212C21.3474 20.5438 21.0675 20.6588 20.7779 20.6753C20.5834 20.6864 20.56 20.8339 20.3771 20.8339C20.1116 20.8339 19.7179 20.843 19.4654 20.9132C19.2152 20.9827 19.0893 21.9442 19.0338 22.208C18.9957 22.3891 18.8014 23.6363 19.0206 23.6878C21.2168 24.2046 23.4172 24.2428 25.6578 24.2428C26.4092 24.2428 27.1532 24.1635 27.9128 24.1635" stroke="black" stroke-width="2.09779" stroke-linecap="round"/>
<path d="M35.999 20.1995C38.644 19.8866 41.3023 19.6445 43.9664 19.6445C44.5648 19.6445 44.4817 20.075 44.4817 20.6355C44.4817 21.6 44.4817 22.5646 44.4817 23.5291C44.4817 24.0384 43.9851 24.1633 43.5524 24.1633C42.535 24.1633 41.5176 24.1633 40.5002 24.1633C39.797 24.1633 39.0938 24.1633 38.3906 24.1633C37.7377 24.1633 37.0223 24.2509 36.3778 24.1457C35.5221 24.006 34.6436 24.1282 33.7793 24.0048" stroke="black" stroke-width="2.09779" stroke-linecap="round"/>
<path d="M29.8168 17.3457C29.7628 17.4537 29.6922 17.1357 29.6583 17.0198C29.5131 16.5246 29.448 16.0086 29.3412 15.5047C29.1299 14.5088 29.0389 13.4968 28.9448 12.4834C28.838 11.334 28.8589 10.1748 28.8655 9.02163C28.871 8.06024 29.1097 7.2276 29.3323 6.29979C29.6515 4.96998 30.1438 3.60924 30.8034 2.40642C30.939 2.15905 31.0103 1.88672 31.3231 1.88672C31.5354 1.88672 31.692 1.96808 31.8692 2.08051C32.1063 2.23097 32.436 2.2922 32.6532 2.45927C32.8592 2.61777 33.083 3.07664 33.1376 3.32251C33.3388 4.22764 33.305 5.23839 33.305 6.16766C33.305 6.81509 33.305 7.46252 33.305 8.10995C33.305 8.60523 33.4192 9.27483 33.2874 9.75274C33.1883 10.1117 33.1536 10.5967 33.1464 10.9683C33.1357 11.5294 32.9086 12.0523 32.9086 12.6243C32.9086 13.4383 32.6708 14.2298 32.6708 15.0467C32.6708 15.5487 32.6708 16.0508 32.6708 16.5529" stroke="black" stroke-width="2.09779" stroke-linecap="round"/>
<path d="M29.3406 3.78906C28.5716 4.20701 27.6954 4.01701 26.9051 4.37923C26.4306 4.59668 25.9979 5.02566 25.5838 5.33936C25.1641 5.65732 24.8335 6.14274 24.4475 6.50649C24.1637 6.77394 23.8698 7.06545 23.6459 7.38735C23.4119 7.72366 23.201 8.12489 22.9192 8.42235C21.8508 9.55015 21.1962 11.3139 20.7347 12.7561C20.0243 14.9762 19.2725 17.1214 19.2725 19.4859" stroke="black" stroke-width="2.09779" stroke-linecap="round"/>
<path d="M34.5732 3.62891C34.9184 3.84621 35.3073 3.95162 35.6831 4.10457C36.2293 4.32686 36.6126 4.68868 37.0661 5.05148C37.4842 5.386 37.7541 5.93737 38.0614 6.36836C38.5667 7.07689 38.9681 7.81385 39.4179 8.55288C40.1414 9.74143 40.7933 10.9824 41.1973 12.3097C41.5481 13.4626 41.7412 14.6706 42.1045 15.8287C42.2385 16.2557 42.2981 16.6822 42.404 17.106C42.4857 17.4325 42.6595 17.8015 42.6595 18.1366" stroke="black" stroke-width="2.09779" stroke-linecap="round"/>
<path d="M24.8223 6.80078C24.8223 8.23067 25.1378 9.66583 25.2803 11.0905C25.3595 11.8824 25.3772 12.6564 25.3772 13.4512C25.3772 13.665 25.4953 14.3645 25.3376 14.4906C25.2504 14.5603 25.1394 15.2254 25.1394 15.3627" stroke="black" stroke-width="2.09779" stroke-linecap="round"/>
<path d="M36.6328 4.66211C36.6328 7.92159 36.7121 11.2798 36.7121 14.4924" stroke="black" stroke-width="2.09779" stroke-linecap="round"/>
</svg>
