<svg width="93" height="69" viewBox="0 0 93 69" fill="none" xmlns="http://www.w3.org/2000/svg">
<path d="M15.7127 40.8457C14.0983 40.8457 11.8341 39.961 11.3953 38.4267C11.2212 37.818 10.591 37.2696 10.5509 36.5487C10.5095 35.8027 10.5152 34.7738 10.1049 34.1296C8.38918 31.4363 0.0321984 30.581 1.72506 35.4665C2.14379 36.6749 4.6095 37.4465 5.80345 37.1057C6.34547 36.951 6.45024 37.494 6.53628 38.2675C6.61715 38.9945 7.20154 39.915 7.52402 40.5593C8.85075 43.21 11.1107 46.0021 14.2788 46.0021" stroke="black" stroke-width="2.51281" stroke-linecap="round"/>
<rect width="23.6261" height="33.3587" rx="11.8131" transform="matrix(0.999946 -0.0104331 -0.00938194 -0.999956 36.6182 68.4297)" fill="#FF1B1A"/>
<rect width="23.6751" height="31.0848" rx="11.8376" transform="matrix(0.979208 -0.202861 0.183143 0.983086 10.8662 10.0273)" fill="#FF1B1A"/>
<rect width="23.3172" height="30.6218" rx="11.6586" transform="matrix(0.919217 0.393751 0.375514 -0.926817 8.73145 56.2227)" fill="#FF1B1A"/>
<rect width="23.6261" height="31.143" rx="11.8131" transform="matrix(0.999946 0.0104331 -0.00938194 0.999956 36.6738 0.572266)" fill="#FF1B1A"/>
<rect width="23.2258" height="30.2271" rx="11.6129" transform="matrix(0.93179 0.362998 -0.330616 0.943765 64.8232 4.99805)" fill="#FF1B1A"/>
<rect width="23.7788" height="30.9469" rx="11.8894" transform="matrix(0.93179 -0.362998 -0.330616 -0.943765 64.3359 66.0547)" fill="#FF1B1A"/>
<rect width="45.037" height="23.6018" transform="translate(25.2969 23.4375)" fill="#FF1B1A"/>
<rect x="36.1152" y="28.2578" width="5.02561" height="5.02561" rx="2.51281" fill="black"/>
<rect x="51.6934" y="28.2578" width="5.02561" height="5.02561" rx="2.51281" fill="black"/>
<path d="M56.8447 41.3262C53.9067 37.7233 45.9739 32.6794 37.7474 41.3262" stroke="black" stroke-width="2.51281" stroke-linecap="round"/>
<path d="M34.9062 23.9086C45.3189 32.0547 50.8616 19.6366 60.3351 23.9086" stroke="black" stroke-width="2.51281" stroke-linecap="round"/>
<path d="M77.2873 40.9317C78.9017 40.9317 81.1659 40.0469 81.6047 38.5126C81.7788 37.9039 82.409 37.3556 82.4491 36.6346C82.4905 35.8886 82.4848 34.8597 82.8951 34.2156C84.6108 31.5223 92.9678 30.6669 91.2749 35.5524C90.8562 36.7608 88.3905 37.5324 87.1966 37.1917C86.6545 37.037 86.5498 37.5799 86.4637 38.3534C86.3829 39.0805 85.7985 40.0009 85.476 40.6452C84.1493 43.2959 81.8893 46.0881 78.7212 46.0881" stroke="black" stroke-width="2.51281" stroke-linecap="round"/>
</svg>
