<svg width="25" height="25" viewBox="0 0 25 25" fill="none" xmlns="http://www.w3.org/2000/svg">
<path d="M21.4297 9.42871H15.4297V3.42871C15.4297 2.63306 15.1136 1.87 14.551 1.30739C13.9884 0.744781 13.2253 0.428711 12.4297 0.428711C11.634 0.428711 10.871 0.744781 10.3084 1.30739C9.74576 1.87 9.42969 2.63306 9.42969 3.42871L9.53619 9.42871H3.42969C2.63404 9.42871 1.87098 9.74478 1.30837 10.3074C0.745758 10.87 0.429688 11.6331 0.429688 12.4287C0.429688 13.2244 0.745758 13.9874 1.30837 14.55C1.87098 15.1126 2.63404 15.4287 3.42969 15.4287L9.53619 15.3222L9.42969 21.4287C9.42969 22.2244 9.74576 22.9874 10.3084 23.55C10.871 24.1126 11.634 24.4287 12.4297 24.4287C13.2253 24.4287 13.9884 24.1126 14.551 23.55C15.1136 22.9874 15.4297 22.2244 15.4297 21.4287V15.3222L21.4297 15.4287C22.2253 15.4287 22.9884 15.1126 23.551 14.55C24.1136 13.9874 24.4297 13.2244 24.4297 12.4287C24.4297 11.6331 24.1136 10.87 23.551 10.3074C22.9884 9.74478 22.2253 9.42871 21.4297 9.42871Z" fill="white"/>
</svg>
