<svg width="29" height="28" viewBox="0 0 29 28" fill="none" xmlns="http://www.w3.org/2000/svg">
<path d="M20.425 2.67472C20.0833 3.01643 20.0833 3.5664 20.0833 4.66634V19.833C20.0833 20.933 20.0833 21.4829 20.425 21.8246C20.7668 22.1663 21.3167 22.1663 22.4167 22.1663C23.5166 22.1663 24.0666 22.1663 24.4083 21.8246C24.75 21.4829 24.75 20.933 24.75 19.833V4.66634C24.75 3.5664 24.75 3.01643 24.4083 2.67472C24.0666 2.33301 23.5166 2.33301 22.4167 2.33301C21.3167 2.33301 20.7668 2.33301 20.425 2.67472Z" fill="#B3B3B3"/>
<path d="M11.9167 8.16634C11.9167 7.0664 11.9167 6.51643 12.2584 6.17472C12.6001 5.83301 13.1501 5.83301 14.25 5.83301C15.3499 5.83301 15.8999 5.83301 16.2416 6.17472C16.5833 6.51643 16.5833 7.0664 16.5833 8.16634V19.833C16.5833 20.933 16.5833 21.4829 16.2416 21.8246C15.8999 22.1663 15.3499 22.1663 14.25 22.1663C13.1501 22.1663 12.6001 22.1663 12.2584 21.8246C11.9167 21.4829 11.9167 20.933 11.9167 19.833V8.16634Z" fill="#B3B3B3"/>
<path d="M4.09171 10.8414C3.75 11.1831 3.75 11.7331 3.75 12.833V19.833C3.75 20.933 3.75 21.4829 4.09171 21.8246C4.43342 22.1663 4.98339 22.1663 6.08333 22.1663C7.18328 22.1663 7.73325 22.1663 8.07496 21.8246C8.41667 21.4829 8.41667 20.933 8.41667 19.833V12.833C8.41667 11.7331 8.41667 11.1831 8.07496 10.8414C7.73325 10.4997 7.18328 10.4997 6.08333 10.4997C4.98339 10.4997 4.43342 10.4997 4.09171 10.8414Z" fill="#B3B3B3"/>
<path d="M3.75 24.7913C3.26675 24.7913 2.875 25.1831 2.875 25.6663C2.875 26.1496 3.26675 26.5413 3.75 26.5413H24.75C25.2332 26.5413 25.625 26.1496 25.625 25.6663C25.625 25.1831 25.2332 24.7913 24.75 24.7913H3.75Z" fill="#B3B3B3"/>
</svg>
