<svg width="28" height="28" viewBox="0 0 28 28" fill="none" xmlns="http://www.w3.org/2000/svg">
<path fill-rule="evenodd" clip-rule="evenodd" d="M2.94065 9.12748C2.33398 10.2323 2.33398 11.5682 2.33398 14.2375V16.0132C2.33398 20.5632 2.33398 22.8393 3.70132 24.2533C5.06865 25.6673 7.26782 25.6673 11.6673 25.6673H16.334C20.7335 25.6673 22.9338 25.6673 24.3 24.2533C25.6662 22.8393 25.6673 20.5643 25.6673 16.0132V14.2387C25.6673 11.5682 25.6673 10.2335 25.0607 9.12748C24.4563 8.02032 23.3492 7.33432 21.136 5.95998L18.8027 4.51215C16.4635 3.05965 15.2933 2.33398 14.0007 2.33398C12.708 2.33398 11.539 3.05965 9.19865 4.51215L6.86532 5.95998C4.65215 7.33432 3.54615 8.02032 2.94065 9.12748ZM11.021 17.965C10.929 17.8934 10.8236 17.8409 10.7111 17.8106C10.5985 17.7803 10.481 17.7728 10.3655 17.7885C10.25 17.8043 10.1388 17.8429 10.0384 17.9022C9.93809 17.9616 9.8506 18.0403 9.7811 18.1339C9.71161 18.2275 9.66152 18.334 9.63377 18.4472C9.60602 18.5605 9.60117 18.6781 9.61951 18.7932C9.63786 18.9083 9.67901 19.0186 9.74057 19.1176C9.80213 19.2166 9.88285 19.3023 9.97798 19.3697C11.1396 20.2377 12.5505 20.7075 14.0007 20.709C15.4504 20.7072 16.8608 20.2375 18.0222 19.3697C18.1173 19.3023 18.198 19.2166 18.2596 19.1176C18.3211 19.0186 18.3623 18.9083 18.3806 18.7932C18.399 18.6781 18.3941 18.5605 18.3664 18.4472C18.3386 18.334 18.2885 18.2275 18.219 18.1339C18.1495 18.0403 18.062 17.9616 17.9617 17.9022C17.8613 17.8429 17.7501 17.8043 17.6346 17.7885C17.5191 17.7728 17.4017 17.7803 17.2891 17.8106C17.1765 17.8409 17.0711 17.8934 16.9792 17.965C16.1194 18.6087 15.0747 18.9574 14.0007 18.959C12.9266 18.9574 11.8807 18.6087 11.021 17.965Z" fill="#B3B3B3"/>
</svg>
