<svg width="29" height="28" viewBox="0 0 29 28" fill="none" xmlns="http://www.w3.org/2000/svg">
<path d="M11.834 2.33398C11.3699 2.33398 10.9247 2.51836 10.5965 2.84655C10.2684 3.17474 10.084 3.61986 10.084 4.08398V5.25065C10.084 5.71478 10.2684 6.1599 10.5965 6.48809C10.9247 6.81628 11.3699 7.00065 11.834 7.00065H17.6673C18.1314 7.00065 18.5766 6.81628 18.9048 6.48809C19.2329 6.1599 19.4173 5.71478 19.4173 5.25065V4.08398C19.4173 3.61986 19.2329 3.17474 18.9048 2.84655C18.5766 2.51836 18.1314 2.33398 17.6673 2.33398H11.834Z" fill="#B3B3B3"/>
<path fill-rule="evenodd" clip-rule="evenodd" d="M8.33333 4.70996C6.86567 4.79163 5.93933 5.02496 5.2755 5.68996C4.25 6.71546 4.25 8.36513 4.25 11.6645V18.6645C4.25 21.965 4.25 23.6146 5.2755 24.6401C6.29983 25.6645 7.95067 25.6645 11.25 25.6645H18.25C21.5493 25.6645 23.2002 25.6645 24.2245 24.6401C25.25 23.6135 25.25 21.965 25.25 18.6645V11.6645C25.25 8.36513 25.25 6.71546 24.2245 5.68996C23.5607 5.02496 22.6343 4.79163 21.1667 4.70996V5.25013C21.1667 6.17839 20.7979 7.06862 20.1415 7.725C19.4852 8.38138 18.5949 8.75013 17.6667 8.75013H11.8333C10.9051 8.75013 10.0148 8.38138 9.35846 7.725C8.70208 7.06862 8.33333 6.17839 8.33333 5.25013V4.70996ZM18.8473 14.6395C18.9326 14.5613 19.0015 14.4671 19.0501 14.3622C19.0987 14.2573 19.126 14.1438 19.1305 14.0283C19.135 13.9128 19.1165 13.7975 19.0762 13.6891C19.0358 13.5808 18.9744 13.4815 18.8955 13.397C18.8166 13.3125 18.7217 13.2445 18.6163 13.197C18.511 13.1494 18.3972 13.1231 18.2816 13.1198C18.1661 13.1164 18.051 13.136 17.943 13.1773C17.8351 13.2187 17.7364 13.2811 17.6527 13.3608L13.2497 17.4698L11.8473 16.1608C11.6773 16.005 11.4527 15.9226 11.2222 15.9315C10.9918 15.9405 10.7742 16.04 10.6168 16.2085C10.4593 16.377 10.3748 16.6009 10.3815 16.8314C10.3882 17.0619 10.4857 17.2804 10.6527 17.4395L12.6535 19.3061C12.8155 19.4572 13.0288 19.5412 13.2502 19.5412C13.4717 19.5412 13.685 19.4572 13.847 19.3061L18.8473 14.6395Z" fill="#B3B3B3"/>
</svg>
