<svg width="32" height="33" viewBox="0 0 32 33" fill="none" xmlns="http://www.w3.org/2000/svg">
<path fill-rule="evenodd" clip-rule="evenodd" d="M4.61606 5.11802C2.66406 7.07268 2.66406 10.214 2.66406 16.4993C2.66406 22.7847 2.66406 25.9273 4.61606 27.8793C6.57073 29.8327 9.71206 29.8327 15.9974 29.8327C22.2827 29.8327 25.4254 29.8327 27.3774 27.8793C29.3307 25.9287 29.3307 22.7847 29.3307 16.4993C29.3307 10.214 29.3307 7.07135 27.3774 5.11802C25.4267 3.16602 22.2827 3.16602 15.9974 3.16602C9.71206 3.16602 6.5694 3.16602 4.61606 5.11802ZM14.0561 10.522C14.1466 10.4269 14.2175 10.3148 14.2647 10.1922C14.3119 10.0697 14.3345 9.939 14.3312 9.8077C14.328 9.6764 14.2989 9.54703 14.2456 9.42697C14.1923 9.30692 14.1159 9.19854 14.0207 9.10802C13.9256 9.01749 13.8135 8.9466 13.6909 8.89938C13.5684 8.85217 13.4377 8.82955 13.3064 8.83283C13.1751 8.83611 13.0457 8.86523 12.9257 8.9185C12.8056 8.97178 12.6973 9.04818 12.6067 9.14335L9.5214 12.3833L8.7214 11.5433C8.63185 11.4444 8.52341 11.3644 8.40245 11.308C8.28149 11.2516 8.15047 11.22 8.0171 11.215C7.88374 11.21 7.75073 11.2318 7.62591 11.2791C7.5011 11.3263 7.387 11.3981 7.29035 11.4901C7.19369 11.5821 7.11644 11.6925 7.06313 11.8149C7.00983 11.9372 6.98155 12.069 6.97997 12.2025C6.97839 12.3359 7.00354 12.4683 7.05394 12.5919C7.10433 12.7155 7.17895 12.8277 7.2734 12.922L8.7974 14.522C8.89079 14.62 9.00312 14.6981 9.12757 14.7514C9.25202 14.8047 9.386 14.8322 9.5214 14.8322C9.65679 14.8322 9.79077 14.8047 9.91522 14.7514C10.0397 14.6981 10.152 14.62 10.2454 14.522L14.0561 10.522ZM17.3307 11.4993C17.0655 11.4993 16.8112 11.6047 16.6236 11.7922C16.4361 11.9798 16.3307 12.2341 16.3307 12.4993C16.3307 12.7646 16.4361 13.0189 16.6236 13.2065C16.8112 13.394 17.0655 13.4993 17.3307 13.4993H23.9974C24.2626 13.4993 24.517 13.394 24.7045 13.2065C24.892 13.0189 24.9974 12.7646 24.9974 12.4993C24.9974 12.2341 24.892 11.9798 24.7045 11.7922C24.517 11.6047 24.2626 11.4993 23.9974 11.4993H17.3307ZM14.0547 19.8554C14.1492 19.7611 14.2238 19.6488 14.2742 19.5252C14.3246 19.4017 14.3497 19.2693 14.3482 19.1358C14.3466 19.0024 14.3183 18.8706 14.265 18.7482C14.2117 18.6259 14.1344 18.5154 14.0378 18.4234C13.9411 18.3314 13.827 18.2596 13.7022 18.2124C13.5774 18.1652 13.4444 18.1434 13.311 18.1483C13.1777 18.1533 13.0466 18.1849 12.9257 18.2413C12.8047 18.2977 12.6963 18.3777 12.6067 18.4767L9.5214 21.7167L8.7214 20.8767C8.63185 20.7777 8.52341 20.6977 8.40245 20.6413C8.28149 20.5849 8.15047 20.5533 8.0171 20.5483C7.88374 20.5434 7.75073 20.5652 7.62591 20.6124C7.5011 20.6596 7.387 20.7314 7.29035 20.8234C7.19369 20.9154 7.11644 21.0259 7.06313 21.1482C7.00983 21.2706 6.98155 21.4024 6.97997 21.5358C6.97839 21.6693 7.00354 21.8017 7.05394 21.9252C7.10433 22.0488 7.17895 22.1611 7.2734 22.2553L8.7974 23.8554C8.89079 23.9534 9.00312 24.0314 9.12757 24.0847C9.25202 24.1381 9.386 24.1656 9.5214 24.1656C9.65679 24.1656 9.79077 24.1381 9.91522 24.0847C10.0397 24.0314 10.152 23.9534 10.2454 23.8554L14.0547 19.8554ZM17.3307 20.8327C17.0655 20.8327 16.8112 20.938 16.6236 21.1256C16.4361 21.3131 16.3307 21.5675 16.3307 21.8327C16.3307 22.0979 16.4361 22.3523 16.6236 22.5398C16.8112 22.7273 17.0655 22.8327 17.3307 22.8327H23.9974C24.2626 22.8327 24.517 22.7273 24.7045 22.5398C24.892 22.3523 24.9974 22.0979 24.9974 21.8327C24.9974 21.5675 24.892 21.3131 24.7045 21.1256C24.517 20.938 24.2626 20.8327 23.9974 20.8327H17.3307Z" fill="#FF1B1A"/>
</svg>
