<svg width="20" height="20" viewBox="0 0 20 20" fill="none" xmlns="http://www.w3.org/2000/svg">
<path d="M4.58496 6.25001L2.08496 6.66667C2.76413 3.53584 4.73663 2.50292 6.66829 2.50001C7.91704 2.49792 9.14829 2.92751 10.0016 3.33334C10.855 2.92751 12.085 2.50001 13.335 2.50001C15.2562 2.50001 17.2391 3.53584 17.9183 6.66667L15.4183 6.25001C15.6512 7.12501 16.1633 8.66334 15.4183 10C14.1766 8.88626 11.3058 7.20459 10.0016 6.25001C8.69746 7.20459 5.82663 8.88626 4.58496 10C3.83996 8.66376 4.35204 7.12501 4.58496 6.25001Z" fill="#0D0D0D" stroke="#0D0D0D" stroke-width="1.5" stroke-linecap="round" stroke-linejoin="round"/>
<path d="M10.0017 6.25C9.68707 7.87042 9.24707 11.8887 10.0017 15" stroke="#0D0D0D" stroke-width="2" stroke-linecap="round" stroke-linejoin="round"/>
<path d="M5 17.5H15C13.0054 15.5896 12.0833 15.0021 10 15C7.91667 14.9979 5.78833 16.4092 5 17.5Z" fill="#0D0D0D" stroke="#0D0D0D" stroke-width="2" stroke-linecap="round" stroke-linejoin="round"/>
</svg>
