<svg width="32" height="33" viewBox="0 0 32 33" fill="none" xmlns="http://www.w3.org/2000/svg">
<path d="M7.33594 10.5L3.33594 11.1667C4.4226 6.15734 7.5786 4.50468 10.6693 4.50001C12.6673 4.49668 14.6373 5.18401 16.0026 5.83335C17.3679 5.18401 19.3359 4.50001 21.3359 4.50001C24.4099 4.50001 27.5826 6.15734 28.6693 11.1667L24.6693 10.5C25.0419 11.9 25.8613 14.3613 24.6693 16.5C22.6826 14.718 18.0893 12.0273 16.0026 10.5C13.9159 12.0273 9.3226 14.718 7.33594 16.5C6.14394 14.362 6.96327 11.9 7.33594 10.5Z" fill="#FF1B1A" stroke="#FF1B1A" stroke-width="2" stroke-linecap="round" stroke-linejoin="round"/>
<path d="M16.0027 10.5C15.4993 13.0927 14.7953 19.522 16.0027 24.5" stroke="#FF1B1A" stroke-width="2" stroke-linecap="round" stroke-linejoin="round"/>
<path d="M8 28.5H24C20.8087 25.4433 19.3333 24.5033 16 24.5C12.6667 24.4967 9.26133 26.7547 8 28.5Z" fill="#FF1B1A" stroke="#FF1B1A" stroke-width="2" stroke-linecap="round" stroke-linejoin="round"/>
</svg>
