<svg width="32" height="33" viewBox="0 0 32 33" fill="none" xmlns="http://www.w3.org/2000/svg">
<path fill-rule="evenodd" clip-rule="evenodd" d="M2.7574 7.51002C2.66406 8.00068 2.66406 8.59002 2.66406 9.76602V19.166C2.66406 24.194 2.66406 26.7087 4.22673 28.27C5.7894 29.8313 8.30273 29.8327 13.3307 29.8327H18.6641C23.6921 29.8327 26.2067 29.8327 27.7681 28.27C29.3294 26.7073 29.3307 24.194 29.3307 19.166V16.23C29.3307 12.7207 29.3307 10.9647 28.3041 9.82468C28.2099 9.71948 28.1102 9.61934 28.0054 9.52468C26.8654 8.49935 25.1094 8.49935 21.6001 8.49935H21.1014C19.5641 8.49935 18.7947 8.49935 18.0774 8.29535C17.6837 8.18282 17.3044 8.02534 16.9467 7.82602C16.2961 7.46468 15.7521 6.91935 14.6641 5.83268L13.9307 5.09935C13.5654 4.73402 13.3841 4.55268 13.1921 4.39268C12.3663 3.7082 11.3533 3.28861 10.2854 3.18868C10.0374 3.16602 9.77873 3.16602 9.26406 3.16602C8.08673 3.16602 7.49873 3.16602 7.00806 3.25935C5.95452 3.45831 4.98539 3.9702 4.22714 4.72822C3.46888 5.48624 2.95669 6.45653 2.7574 7.51002ZM21.7081 4.49935C22.1947 4.49935 22.4387 4.49935 22.6441 4.52602C24.0014 4.71268 25.0814 5.78335 25.3294 7.16602C25.1263 7.12044 24.9212 7.0844 24.7147 7.05802C23.8614 6.94602 22.7841 6.94602 21.4481 6.94602H21.0027C19.7467 6.94602 19.2694 6.93935 18.8361 6.81135C18.5838 6.73668 18.3412 6.6324 18.1134 6.50068C17.7187 6.27402 17.3774 5.93002 16.4894 5.01002L15.9974 4.49935H21.7081ZM17.3307 12.8327C17.0655 12.8327 16.8112 12.938 16.6236 13.1256C16.4361 13.3131 16.3307 13.5675 16.3307 13.8327C16.3307 14.0979 16.4361 14.3523 16.6236 14.5398C16.8112 14.7273 17.0655 14.8327 17.3307 14.8327H23.9974C24.2626 14.8327 24.517 14.7273 24.7045 14.5398C24.892 14.3523 24.9974 14.0979 24.9974 13.8327C24.9974 13.5675 24.892 13.3131 24.7045 13.1256C24.517 12.938 24.2626 12.8327 23.9974 12.8327H17.3307Z" fill="#FF1B1A"/>
</svg>
