<svg width="24" height="24" viewBox="0 0 24 24" fill="none" xmlns="http://www.w3.org/2000/svg">
<path fill-rule="evenodd" clip-rule="evenodd" d="M2.52098 7.823C2.00098 8.77 2.00098 9.915 2.00098 12.203V13.725C2.00098 17.625 2.00098 19.576 3.17298 20.788C4.34498 22 6.22998 22 10.001 22H14.001C17.772 22 19.658 22 20.829 20.788C22 19.576 22.001 17.626 22.001 13.725V12.204C22.001 9.915 22.001 8.771 21.481 7.823C20.963 6.874 20.014 6.286 18.117 5.108L16.117 3.867C14.112 2.622 13.109 2 12.001 2C10.893 2 9.89098 2.622 7.88498 3.867L5.88498 5.108C3.98798 6.286 3.03998 6.874 2.52098 7.823ZM9.44698 15.398C9.36812 15.3366 9.2778 15.2916 9.18132 15.2657C9.08484 15.2397 8.98414 15.2333 8.88513 15.2468C8.78613 15.2603 8.69082 15.2934 8.6048 15.3442C8.51878 15.3951 8.44379 15.4626 8.38422 15.5428C8.32466 15.623 8.28172 15.7143 8.25793 15.8114C8.23415 15.9084 8.23 16.0092 8.24572 16.1079C8.26144 16.2066 8.29672 16.3011 8.34948 16.386C8.40224 16.4708 8.47143 16.5443 8.55298 16.602C9.54866 17.3461 10.758 17.7487 12.001 17.75C13.2436 17.7485 14.4526 17.3459 15.448 16.602C15.5295 16.5443 15.5987 16.4708 15.6515 16.386C15.7042 16.3011 15.7395 16.2066 15.7552 16.1079C15.771 16.0092 15.7668 15.9084 15.743 15.8114C15.7192 15.7143 15.6763 15.623 15.6167 15.5428C15.5572 15.4626 15.4822 15.3951 15.3962 15.3442C15.3101 15.2934 15.2148 15.2603 15.1158 15.2468C15.0168 15.2333 14.9161 15.2397 14.8196 15.2657C14.7232 15.2916 14.6328 15.3366 14.554 15.398C13.8171 15.9498 12.9216 16.2486 12.001 16.25C11.0804 16.2486 10.1839 15.9498 9.44698 15.398Z" fill="#0D0D0D"/>
</svg>
