<svg width="26" height="26" viewBox="0 0 26 26" fill="none" xmlns="http://www.w3.org/2000/svg">
<g clip-path="url(#clip0_5287_48539)">
<path d="M13 24.375C19.2822 24.375 24.375 19.2822 24.375 13C24.375 6.71776 19.2822 1.625 13 1.625C6.71776 1.625 1.625 6.71776 1.625 13C1.625 19.2822 6.71776 24.375 13 24.375Z" fill="#FFC84D"/>
<path d="M10.0245 12.4279C10.7834 12.4279 11.3986 11.8127 11.3986 11.0538C11.3986 10.2949 10.7834 9.67969 10.0245 9.67969C9.2656 9.67969 8.65039 10.2949 8.65039 11.0538C8.65039 11.8127 9.2656 12.4279 10.0245 12.4279Z" fill="black"/>
<path d="M15.9757 12.4279C16.7346 12.4279 17.3498 11.8127 17.3498 11.0538C17.3498 10.2949 16.7346 9.67969 15.9757 9.67969C15.2168 9.67969 14.6016 10.2949 14.6016 11.0538C14.6016 11.8127 15.2168 12.4279 15.9757 12.4279Z" fill="black"/>
<path d="M13.0007 15.9032C15.1996 15.9032 17.0528 17.3663 17.6508 19.3709C17.6852 19.4866 17.8555 19.4613 17.8581 19.341C17.8581 19.3137 17.8588 19.2858 17.8588 19.2585C17.8588 16.5753 15.6839 14.4004 13.0007 14.4004C10.3175 14.4004 8.14258 16.5753 8.14258 19.2585C8.14258 19.2864 8.14258 19.3137 8.14323 19.341C8.14583 19.4619 8.31613 19.4866 8.35058 19.3709C8.94793 17.3657 10.8011 15.9032 13.0007 15.9032Z" fill="#FF6D00"/>
</g>
<defs>
<clipPath id="clip0_5287_48539">
<rect width="26" height="26" fill="white"/>
</clipPath>
</defs>
</svg>
