<svg width="26" height="26" viewBox="0 0 26 26" fill="none" xmlns="http://www.w3.org/2000/svg">
<g clip-path="url(#clip0_5550_23311)">
<path d="M12.9993 21.8595C18.6328 21.8595 23.1997 17.3299 23.1997 11.7423C23.1997 6.15465 18.6328 1.625 12.9993 1.625C7.36573 1.625 2.79883 6.15465 2.79883 11.7423C2.79883 17.3299 7.36573 21.8595 12.9993 21.8595Z" fill="#93C9FF"/>
<path d="M2.79948 11.7422C2.79948 6.15485 7.36638 1.625 12.9999 1.625C18.6335 1.625 23.2004 6.15485 23.2004 11.7422C23.2004 17.3296 2.79948 17.3296 2.79948 11.7422Z" fill="#3182F6"/>
<path d="M2.79883 11.7423C2.79883 6.15491 23.2004 6.15491 23.2004 11.7423C23.2004 17.3297 2.79883 17.3297 2.79883 11.7423Z" fill="#64A7FF"/>
<path d="M16.8259 9.28614C17.5884 9.28614 18.2065 8.67326 18.2065 7.91724C18.2065 7.16122 17.5884 6.54834 16.8259 6.54834C16.0634 6.54834 15.4453 7.16122 15.4453 7.91724C15.4453 8.67326 16.0634 9.28614 16.8259 9.28614Z" fill="white"/>
<path d="M19.1764 24.3751H6.82383C6.35518 24.3751 6.04643 23.8863 6.24858 23.4631L7.55313 20.7299C7.65908 20.5082 7.88268 20.3672 8.12838 20.3672H17.8725C18.1182 20.3672 18.3418 20.5082 18.4478 20.7299L19.7523 23.4631C19.9545 23.8863 19.6451 24.3751 19.1764 24.3751Z" fill="#424F57"/>
</g>
<defs>
<clipPath id="clip0_5550_23311">
<rect width="26" height="26" fill="white"/>
</clipPath>
</defs>
</svg>
