<svg width="26" height="26" viewBox="0 0 26 26" fill="none" xmlns="http://www.w3.org/2000/svg">
<g clip-path="url(#clip0_5287_45107)">
<path d="M13.4744 3.49023H12.5273V20.6359H13.4744V3.49023Z" fill="#D5D5D5"/>
<path d="M7.27364 5.66581L6.60352 6.33594L18.7274 18.4598L19.3975 17.7897L7.27364 5.66581Z" fill="#D5D5D5"/>
<path d="M21.5741 11.5898H4.42773V12.5369H21.5741V11.5898Z" fill="#D5D5D5"/>
<path d="M18.7274 5.66522L6.60352 17.7891L7.27364 18.4592L19.3975 6.33535L18.7274 5.66522Z" fill="#D5D5D5"/>
<path d="M13.0012 21.8527C7.60299 21.8527 3.21094 17.4613 3.21094 12.0631C3.21094 6.66484 7.60299 2.27344 13.0012 2.27344C18.3995 2.27344 22.7915 6.66549 22.7915 12.0637C22.7915 17.462 18.3995 21.8527 13.0012 21.8527ZM13.0012 3.53639C8.29979 3.53639 4.47454 7.36164 4.47454 12.0631C4.47454 16.7645 8.29979 20.5891 13.0012 20.5891C17.7027 20.5891 21.5279 16.7639 21.5279 12.0631C21.5279 7.36229 17.7027 3.53639 13.0012 3.53639Z" fill="#D5D5D5"/>
<path d="M13.0004 4.21369C13.9844 4.21369 14.782 3.41602 14.782 2.43204C14.782 1.44806 13.9844 0.650391 13.0004 0.650391C12.0164 0.650391 11.2188 1.44806 11.2188 2.43204C11.2188 3.41602 12.0164 4.21369 13.0004 4.21369Z" fill="#EF4452"/>
<path d="M6.20938 7.02619C7.19336 7.02619 7.99103 6.22852 7.99103 5.24454C7.99103 4.26056 7.19336 3.46289 6.20938 3.46289C5.22541 3.46289 4.42773 4.26056 4.42773 5.24454C4.42773 6.22852 5.22541 7.02619 6.20938 7.02619Z" fill="#EF4452"/>
<path d="M3.39688 13.8172C4.38086 13.8172 5.17853 13.0195 5.17853 12.0356C5.17853 11.0516 4.38086 10.2539 3.39688 10.2539C2.41291 10.2539 1.61523 11.0516 1.61523 12.0356C1.61523 13.0195 2.41291 13.8172 3.39688 13.8172Z" fill="#EF4452"/>
<path d="M6.20938 20.6102C7.19336 20.6102 7.99103 19.8125 7.99103 18.8285C7.99103 17.8445 7.19336 17.0469 6.20938 17.0469C5.22541 17.0469 4.42773 17.8445 4.42773 18.8285C4.42773 19.8125 5.22541 20.6102 6.20938 20.6102Z" fill="#EF4452"/>
<path d="M19.7914 20.6102C20.7754 20.6102 21.5731 19.8125 21.5731 18.8285C21.5731 17.8445 20.7754 17.0469 19.7914 17.0469C18.8074 17.0469 18.0098 17.8445 18.0098 18.8285C18.0098 19.8125 18.8074 20.6102 19.7914 20.6102Z" fill="#EF4452"/>
<path d="M22.6039 13.8172C23.5879 13.8172 24.3856 13.0195 24.3856 12.0356C24.3856 11.0516 23.5879 10.2539 22.6039 10.2539C21.6199 10.2539 20.8223 11.0516 20.8223 12.0356C20.8223 13.0195 21.6199 13.8172 22.6039 13.8172Z" fill="#EF4452"/>
<path d="M19.7914 7.02619C20.7754 7.02619 21.5731 6.22852 21.5731 5.24454C21.5731 4.26056 20.7754 3.46289 19.7914 3.46289C18.8074 3.46289 18.0098 4.26056 18.0098 5.24454C18.0098 6.22852 18.8074 7.02619 19.7914 7.02619Z" fill="#EF4452"/>
<path d="M17.345 23.7465L14.2172 12.6055C13.8721 11.3763 12.1301 11.3763 11.7849 12.6055L8.65713 23.7465C8.43093 24.5525 9.03673 25.3513 9.87328 25.3513H16.1289C16.9654 25.3513 17.5712 24.5525 17.345 23.7465Z" fill="#D12030"/>
</g>
<defs>
<clipPath id="clip0_5287_45107">
<rect width="26" height="26" fill="white"/>
</clipPath>
</defs>
</svg>
