<svg width="26" height="26" viewBox="0 0 26 26" fill="none" xmlns="http://www.w3.org/2000/svg">
<g clip-path="url(#clip0_5287_45837)">
<path d="M21.44 5.16211H4.56148C3.53838 5.16211 2.70898 5.9915 2.70898 7.01461V16.3096C2.70898 17.3327 3.53838 18.1621 4.56148 18.1621H21.44C22.4631 18.1621 23.2925 17.3327 23.2925 16.3096V7.01461C23.2925 5.9915 22.4631 5.16211 21.44 5.16211Z" fill="#D0D5DA"/>
<path fill-rule="evenodd" clip-rule="evenodd" d="M13.1094 5.16132H20.7703V3.93867C20.7703 3.22042 20.1885 2.63867 19.4703 2.63867H14.4094C13.6911 2.63867 13.1094 3.22042 13.1094 3.93867V5.16132Z" fill="#3182F6"/>
<path d="M21.44 7.11328H4.56148C3.53838 7.11328 2.70898 7.94267 2.70898 8.96578V18.2608C2.70898 19.2839 3.53838 20.1133 4.56148 20.1133H21.44C22.4631 20.1133 23.2925 19.2839 23.2925 18.2608V8.96578C23.2925 7.94267 22.4631 7.11328 21.44 7.11328Z" fill="#E5E9EE"/>
<path fill-rule="evenodd" clip-rule="evenodd" d="M7.9082 7.11249H15.5691V5.88984C15.5691 5.17159 14.9874 4.58984 14.2691 4.58984H9.2082C8.48995 4.58984 7.9082 5.17159 7.9082 5.88984V7.11249Z" fill="#00BC79"/>
<path fill-rule="evenodd" clip-rule="evenodd" d="M2.70898 9.0625V20.86C2.70898 21.8831 3.53838 22.7125 4.56148 22.7125H21.44C22.4631 22.7125 23.2925 21.8831 23.2925 20.86V10.915C23.2925 9.8919 22.4631 9.0625 21.44 9.0625H2.70898Z" fill="#FFC33A"/>
<path fill-rule="evenodd" clip-rule="evenodd" d="M2.70898 9.06171H10.3699V7.83906C10.3699 7.12081 9.78814 6.53906 9.06988 6.53906H4.00898C3.29073 6.53906 2.70898 7.12081 2.70898 7.83906V9.06171Z" fill="#EC4452"/>
</g>
<defs>
<clipPath id="clip0_5287_45837">
<rect width="26" height="26" fill="white"/>
</clipPath>
</defs>
</svg>
