<svg width="26" height="26" viewBox="0 0 26 26" fill="none" xmlns="http://www.w3.org/2000/svg">
<g clip-path="url(#clip0_5287_47759)">
<path d="M6.5169 24.1459C6.61375 24.4703 7.0759 24.4703 7.1721 24.1459L7.62645 22.6236C6.9381 22.2687 6.2894 21.8508 5.68945 21.373L6.5169 24.1459Z" fill="#9CC0FF"/>
<path d="M20.7148 21.03L21.0619 22.51C21.1438 22.8597 21.6456 22.8597 21.7275 22.51L22.5485 19.0098C22.0181 19.7534 21.4019 20.43 20.7148 21.03Z" fill="#9CC0FF"/>
<path d="M16.373 25.0741C16.4698 25.3984 16.932 25.3984 17.0282 25.0741L17.6567 22.9668C17.0997 23.2073 16.5166 23.3971 15.918 23.5498L16.373 25.0741Z" fill="#9CC0FF"/>
<path d="M15.9394 20.7442C16.0363 21.0686 16.4984 21.0686 16.5946 20.7442L17.426 17.957H15.1074L15.9388 20.7442H15.9394Z" fill="#9CC0FF"/>
<path d="M22.548 19.0097C23.8987 17.1143 24.7008 14.8055 24.7008 12.3062C24.7008 5.88684 19.4624 0.683594 13.0008 0.683594C6.53913 0.683594 1.30078 5.88684 1.30078 12.3062C1.30078 15.9755 3.01678 19.243 5.69023 21.3731C6.29018 21.8508 6.93888 22.2694 7.62723 22.6237C9.23728 23.4531 11.0618 23.9295 13.0008 23.9295C14.0096 23.9295 14.9839 23.7891 15.918 23.5506C16.5166 23.3978 17.0997 23.208 17.6567 22.9675C18.7806 22.4826 19.8069 21.8229 20.7143 21.0305C21.4014 20.4299 22.0182 19.7533 22.548 19.0097ZM17.426 17.9573L16.5946 20.7445C16.4978 21.0689 16.0356 21.0689 15.9394 20.7445L15.1081 17.9573H17.426Z" fill="#73A6FF"/>
<path d="M17.4283 13.5156H8.57075C7.37533 13.5156 6.40625 14.4847 6.40625 15.6801V15.7939C6.40625 16.9893 7.37533 17.9584 8.57075 17.9584H17.4283C18.6237 17.9584 19.5928 16.9893 19.5928 15.7939V15.6801C19.5928 14.4847 18.6237 13.5156 17.4283 13.5156Z" fill="white"/>
<path d="M10.155 11.2644C10.8134 11.2644 11.3471 10.5494 11.3471 9.66736C11.3471 8.78534 10.8134 8.07031 10.155 8.07031C9.49661 8.07031 8.96289 8.78534 8.96289 9.66736C8.96289 10.5494 9.49661 11.2644 10.155 11.2644Z" fill="black"/>
<path d="M15.8464 11.2644C16.5048 11.2644 17.0385 10.5494 17.0385 9.66736C17.0385 8.78534 16.5048 8.07031 15.8464 8.07031C15.188 8.07031 14.6543 8.78534 14.6543 9.66736C14.6543 10.5494 15.188 11.2644 15.8464 11.2644Z" fill="black"/>
<path d="M19.5961 15.465H16.9746V13.5156H16.4273V15.465H13.4308V13.5156H12.8835V15.465H9.887V13.5156H9.3397V15.465H6.4082V16.0084H9.3397V17.9584H9.887V16.0084H12.8835V17.9584H13.4308V16.0084H16.4273V17.9584H16.9746V16.0084H19.5961V15.465Z" fill="#768DFF"/>
</g>
<defs>
<clipPath id="clip0_5287_47759">
<rect width="26" height="26" fill="white"/>
</clipPath>
</defs>
</svg>
