<svg width="26" height="26" viewBox="0 0 26 26" fill="none" xmlns="http://www.w3.org/2000/svg">
<g clip-path="url(#clip0_5287_45793)">
<path d="M11.5182 22.75H14.4829C15.0813 22.75 15.5664 22.2649 15.5664 21.6665L15.5664 14.5964C15.5664 13.998 15.0813 13.5128 14.4829 13.5128H11.5182C10.9198 13.5128 10.4347 13.998 10.4347 14.5964V21.6665C10.4347 22.2649 10.9198 22.75 11.5182 22.75Z" fill="#007FF3"/>
<path d="M4.33266 22.75H7.29731C7.89574 22.75 8.38086 22.2649 8.38086 21.6665L8.38086 9.4653C8.38086 8.86687 7.89574 8.38175 7.29731 8.38175H4.33266C3.73423 8.38175 3.24911 8.86687 3.24911 9.4653L3.24911 21.6665C3.24911 22.2649 3.73423 22.75 4.33266 22.75Z" fill="#00BC79"/>
<path d="M18.7018 22.75H21.6665C22.2649 22.75 22.75 22.2649 22.75 21.6665L22.75 4.33355C22.75 3.73512 22.2649 3.25 21.6665 3.25H18.7018C18.1034 3.25 17.6182 3.73512 17.6182 4.33355L17.6182 21.6665C17.6182 22.2649 18.1034 22.75 18.7018 22.75Z" fill="#FC2D4C"/>
</g>
<defs>
<clipPath id="clip0_5287_45793">
<rect width="26" height="26" fill="white"/>
</clipPath>
</defs>
</svg>
