<svg width="26" height="26" viewBox="0 0 26 26" fill="none" xmlns="http://www.w3.org/2000/svg">
<g clip-path="url(#clip0_5287_50095)">
<path d="M13 24.375C19.2822 24.375 24.375 19.2822 24.375 13C24.375 6.71776 19.2822 1.625 13 1.625C6.71776 1.625 1.625 6.71776 1.625 13C1.625 19.2822 6.71776 24.375 13 24.375Z" fill="#FF5543"/>
<path d="M13 13.8728C10.9571 13.8728 9.56088 14.32 8.93168 14.5748C8.75423 14.6469 8.58913 14.4552 8.68013 14.2862C9.16633 13.3833 10.974 12.4844 13 12.4844C15.0261 12.4844 16.8337 13.3833 17.3199 14.2862C17.4109 14.4552 17.2458 14.6463 17.0684 14.5748C16.4392 14.32 15.043 13.8728 13 13.8728Z" fill="#AF1B1B"/>
<path d="M7.92522 8.61853C7.76467 8.53923 7.58007 8.67833 7.61582 8.85383C7.81407 9.82818 8.65257 10.5601 9.65682 10.5601C10.6611 10.5601 11.4996 9.82818 11.6978 8.85383C11.7336 8.67833 11.549 8.53923 11.3884 8.61853C11.0381 8.79143 10.4414 9.00918 9.65682 9.00918C8.87227 9.00918 8.27557 8.79143 7.92522 8.61853Z" fill="black"/>
<path d="M18.074 8.61853C18.2345 8.53923 18.4191 8.67833 18.3834 8.85383C18.1851 9.82818 17.3466 10.5601 16.3424 10.5601C15.3381 10.5601 14.4996 9.82818 14.3014 8.85383C14.2656 8.67833 14.4502 8.53923 14.6108 8.61853C14.9611 8.79143 15.5578 9.00918 16.3424 9.00918C17.1263 9.00918 17.7236 8.79143 18.074 8.61853Z" fill="black"/>
<path d="M5.92012 18.3954C4.90807 17.8111 4.66627 16.4058 5.55027 15.5075C5.97017 15.0804 6.60457 14.8906 7.19022 15.0174C7.79407 15.148 8.22372 15.5218 8.45902 15.9839L12.1614 12.0488L9.95012 16.8198C10.3921 16.8075 10.8458 16.9446 11.2228 17.2846C11.7727 17.7799 11.9755 18.5976 11.709 19.2879C11.293 20.3636 10.0431 20.7764 9.08562 20.2232C9.07197 20.2154 9.06222 20.205 9.04922 20.1966C8.48307 20.8167 7.54512 20.9844 6.78852 20.5476C6.03192 20.1108 5.70822 19.2144 5.96172 18.4143C5.94807 18.4071 5.93312 18.4032 5.92012 18.3954Z" fill="white"/>
<path d="M20.0792 18.3954C21.0912 17.8111 21.333 16.4058 20.449 15.5075C20.0291 15.0804 19.3947 14.8906 18.8091 15.0174C18.2052 15.148 17.7756 15.5218 17.5403 15.9839L13.8379 12.0488L16.0492 16.8198C15.6072 16.8075 15.1535 16.9446 14.7765 17.2846C14.2266 17.7799 14.0238 18.5976 14.2903 19.2879C14.7063 20.3636 15.9562 20.7764 16.9137 20.2232C16.9273 20.2154 16.9371 20.205 16.9501 20.1966C17.5162 20.8167 18.4542 20.9844 19.2108 20.5476C19.9674 20.1108 20.2911 19.2144 20.0376 18.4143C20.0512 18.4071 20.0655 18.4032 20.0785 18.3954H20.0792Z" fill="white"/>
</g>
<defs>
<clipPath id="clip0_5287_50095">
<rect width="26" height="26" fill="white"/>
</clipPath>
</defs>
</svg>
