<svg width="26" height="26" viewBox="0 0 26 26" fill="none" xmlns="http://www.w3.org/2000/svg">
<g clip-path="url(#clip0_5287_49284)">
<path d="M15.9134 22.8042L20.83 22.8218C22.8632 22.8289 23.4378 20.0391 21.5665 19.2429L21.2421 19.1051C20.1209 18.511 20.4264 16.8268 21.6848 16.665L23.874 16.3829C24.7144 16.2743 25.107 15.2837 24.5682 14.6292L24.2835 14.2834C23.965 13.8966 23.7986 13.4085 23.8116 12.9073C23.8142 12.815 23.8148 12.7227 23.8148 12.6304C23.8148 6.33191 18.362 1.30676 11.9192 2.01851C6.97138 2.56516 2.99273 6.60036 2.50848 11.5547C2.44933 12.1611 2.44088 12.7591 2.47923 13.3441C2.51433 13.8797 2.33428 14.4062 1.98913 14.8177L1.75058 15.1017C0.655977 16.4069 1.21628 18.4044 2.83023 18.9491L5.72338 19.926C6.21543 20.0924 6.48193 20.6235 6.32073 21.1168L6.26353 21.2923C5.66748 23.1169 7.62983 24.7178 9.29773 23.7688L9.77613 23.4965C10.4027 23.1396 11.1021 22.929 11.8223 22.8887C12.6407 22.8432 13.9504 22.799 15.9128 22.8055L15.9134 22.8042Z" fill="#FFC84D"/>
<path d="M16.6073 17.3256C16.6456 17.3113 16.6456 17.2613 16.6047 17.2574C15.5296 17.2125 14.5208 17.154 13.8799 17.0156C11.5607 16.5027 9.71599 15.2762 9.07249 13.1071L8.87034 12.4266C8.83069 12.292 9.03285 12.1711 9.0946 12.2972C9.75825 13.6557 13.5055 16.3669 18.2388 17.1072C18.2388 17.1072 18.686 17.5512 16.5358 18.0744C15.9592 18.2148 15.2325 18.3377 14.7697 18.4098C14.6436 18.4293 14.6248 18.6029 14.7437 18.6503C15.6992 19.1248 17.5816 19.4739 19.1891 19.7287C17.776 19.7293 16.981 19.8749 15.2416 19.4615C14.4889 19.2438 14.1204 19.1021 13.6706 18.7725C13.1174 18.3669 13.4047 17.9223 13.7798 17.8456C14.5591 17.687 15.8682 17.596 16.6073 17.3256Z" fill="#FF6D00"/>
<path d="M12.5551 9.7072C13.0049 8.86124 12.8431 7.89549 12.1937 7.55013C11.5442 7.20477 10.6531 7.61059 10.2032 8.45654C9.75336 9.3025 9.91515 10.2682 10.5646 10.6136C11.214 10.959 12.1052 10.5532 12.5551 9.7072Z" fill="black"/>
<path d="M17.9602 12.7268C18.207 11.801 17.831 10.8969 17.1203 10.7074C16.4095 10.5179 15.6333 11.1147 15.3864 12.0405C15.1396 12.9663 15.5156 13.8704 16.2263 14.0599C16.9371 14.2494 17.7133 13.6526 17.9602 12.7268Z" fill="black"/>
</g>
<defs>
<clipPath id="clip0_5287_49284">
<rect width="26" height="26" fill="white"/>
</clipPath>
</defs>
</svg>
