<svg width="26" height="26" viewBox="0 0 26 26" fill="none" xmlns="http://www.w3.org/2000/svg">
<g clip-path="url(#clip0_5287_40898)">
<path d="M13 24.375C19.2822 24.375 24.375 19.2822 24.375 13C24.375 6.71776 19.2822 1.625 13 1.625C6.71776 1.625 1.625 6.71776 1.625 13C1.625 19.2822 6.71776 24.375 13 24.375Z" fill="#FFC84D"/>
<path d="M6.9696 14.9629C6.22015 14.9629 5.8737 15.386 6.0219 15.8475C6.67775 17.8898 9.55075 19.4271 12.9951 19.4271C16.4394 19.4271 19.3118 17.8892 19.9683 15.8475C20.1165 15.386 19.9221 15.0227 19.1727 15.0227L6.97025 14.9629H6.9696Z" fill="#FF6D00"/>
<path d="M9.26953 20.1253C9.26953 21.9264 10.9309 23.3863 12.9797 23.3863C15.0285 23.3863 16.6899 21.9264 16.6899 20.1253L16.7335 15.4102H9.31308L9.26953 20.1253Z" fill="#50BC9F"/>
<path d="M19.1718 15.022C17.8764 15.9925 15.6449 16.6334 13.1093 16.6334C10.5223 16.6334 8.25185 15.9665 6.96875 14.9629L19.1712 15.0227L19.1718 15.022Z" fill="white"/>
<path d="M13.8354 21.1264C13.6215 21.1264 13.4317 20.9821 13.3752 20.7754L13.0014 19.4175L12.6277 20.7754C12.5711 20.9821 12.3813 21.1264 12.1675 21.1264C11.9536 21.1264 11.7632 20.9821 11.7066 20.7754L11.0066 18.2326C10.9481 18.02 11.0735 17.7997 11.2861 17.7412C11.5006 17.682 11.7183 17.8081 11.7775 18.0207L12.1675 19.437L12.5419 18.0779C12.5984 17.8712 12.7882 17.7269 13.0021 17.7269C13.2159 17.7269 13.4057 17.8712 13.4623 18.0779L13.8367 19.437L14.2267 18.0207C14.2852 17.8081 14.5029 17.682 14.7181 17.7412C14.9306 17.7997 15.0561 18.02 14.9976 18.2326L14.2975 20.7754C14.241 20.9821 14.0512 21.1264 13.8367 21.1264H13.8354Z" fill="#0D7259"/>
<path d="M11.7497 19.8268H10.7279C10.5069 19.8268 10.3281 19.6481 10.3281 19.4271C10.3281 19.2061 10.5069 19.0273 10.7279 19.0273H11.7497C11.9707 19.0273 12.1494 19.2061 12.1494 19.4271C12.1494 19.6481 11.9707 19.8268 11.7497 19.8268Z" fill="#0D7259"/>
<path d="M15.277 19.8268H14.2552C14.0342 19.8268 13.8555 19.6481 13.8555 19.4271C13.8555 19.2061 14.0342 19.0273 14.2552 19.0273H15.277C15.498 19.0273 15.6768 19.2061 15.6768 19.4271C15.6768 19.6481 15.498 19.8268 15.277 19.8268Z" fill="#0D7259"/>
<path d="M13.0013 10.09C12.7822 10.09 12.595 10.196 12.4663 10.3533C12.3844 10.4417 12.3064 10.5639 12.2447 10.7335C11.9944 11.4193 10.7438 13.7924 8.2537 13.7924C6.58515 13.7924 5.29035 13.1158 4.7749 11.6455C4.48565 10.8206 4.3927 9.87228 4.3641 9.28273C4.34785 8.95188 4.576 8.66328 4.90295 8.60803C6.1269 8.40198 9.2092 8.01653 12.2921 8.69253C12.5255 8.74388 12.764 8.76923 13.0019 8.76923C13.2398 8.76923 13.4784 8.74323 13.7117 8.69253C16.7947 8.01653 19.8763 8.40198 21.1009 8.60803C21.4279 8.66328 21.656 8.95188 21.6398 9.28273C21.6105 9.87293 21.5176 10.8213 21.229 11.6455C20.7135 13.1158 19.4187 13.7924 17.7502 13.7924C15.2594 13.7924 14.0094 11.4193 13.7592 10.7335C13.6974 10.5639 13.6194 10.4417 13.5375 10.3533C13.4088 10.1966 13.2216 10.09 13.0032 10.09H13.0013Z" fill="black"/>
</g>
<defs>
<clipPath id="clip0_5287_40898">
<rect width="26" height="26" fill="white"/>
</clipPath>
</defs>
</svg>
