<svg width="26" height="26" viewBox="0 0 26 26" fill="none" xmlns="http://www.w3.org/2000/svg">
<g clip-path="url(#clip0_4715_8502)">
<path d="M13 24.375C19.2822 24.375 24.375 19.2822 24.375 13C24.375 6.71776 19.2822 1.625 13 1.625C6.71776 1.625 1.625 6.71776 1.625 13C1.625 19.2822 6.71776 24.375 13 24.375Z" fill="#FFCD00"/>
<path d="M10.0225 12.1916C10.7814 12.1916 11.3966 11.5764 11.3966 10.8175C11.3966 10.0586 10.7814 9.44336 10.0225 9.44336C9.26364 9.44336 8.64844 10.0586 8.64844 10.8175C8.64844 11.5764 9.26364 12.1916 10.0225 12.1916Z" fill="black"/>
<path d="M15.9757 12.1916C16.7346 12.1916 17.3498 11.5764 17.3498 10.8175C17.3498 10.0586 16.7346 9.44336 15.9757 9.44336C15.2168 9.44336 14.6016 10.0586 14.6016 10.8175C14.6016 11.5764 15.2168 12.1916 15.9757 12.1916Z" fill="black"/>
<path d="M13.0005 15.9366C11.057 15.9366 9.6185 15.5876 8.76245 15.299C8.38285 15.1709 8.06955 15.6415 8.3497 15.9282C9.19665 16.7953 11.0069 17.546 13.0011 17.546C14.9953 17.546 16.8056 16.7953 17.6525 15.9282C17.9327 15.6415 17.6194 15.1716 17.2398 15.299C16.3831 15.5876 14.9446 15.9366 13.0018 15.9366H13.0005Z" fill="#FF8800"/>
</g>
<defs>
<clipPath id="clip0_4715_8502">
<rect width="26" height="26" fill="white"/>
</clipPath>
</defs>
</svg>
