<svg width="26" height="26" viewBox="0 0 26 26" fill="none" xmlns="http://www.w3.org/2000/svg">
<g clip-path="url(#clip0_5287_47426)">
<path d="M21.4747 3.00781H4.52533C3.83178 3.00781 3.26953 3.57006 3.26953 4.26361V22.4688C3.26953 23.1624 3.83178 23.7246 4.52533 23.7246H17.708L22.7299 18.7027V4.26361C22.7299 3.57006 22.1683 3.00781 21.4747 3.00781Z" fill="#E5E9EE"/>
<path fill-rule="evenodd" clip-rule="evenodd" d="M18.9641 18.7038H22.7309L17.709 23.7257V19.9589C17.709 19.2654 18.2712 18.7031 18.9648 18.7031L18.9641 18.7038Z" fill="#C0C7D1"/>
<path d="M22.7299 6.48828H3.26953V7.11553H22.7299V6.48828Z" fill="#D0D5DA"/>
<path d="M22.7299 9.45508H3.26953V10.0823H22.7299V9.45508Z" fill="#D0D5DA"/>
<path d="M22.7299 12.4199H3.26953V13.0472H22.7299V12.4199Z" fill="#D0D5DA"/>
<path d="M22.7299 15.3867H3.26953V16.014H22.7299V15.3867Z" fill="#D0D5DA"/>
<path d="M6.43885 4.62843C6.0053 4.62843 5.6543 4.27743 5.6543 3.84388V2.27478C5.6543 1.84123 6.00595 1.49023 6.43885 1.49023C6.87175 1.49023 7.2234 1.84123 7.2234 2.27478V3.84388C7.2234 4.27743 6.87175 4.62843 6.43885 4.62843Z" fill="#4B596A"/>
<path d="M10.6244 4.62843C10.1908 4.62843 9.83984 4.27743 9.83984 3.84388V2.27478C9.83984 1.84123 10.1915 1.49023 10.6244 1.49023C11.0573 1.49023 11.4089 1.84123 11.4089 2.27478V3.84388C11.4089 4.27743 11.0573 4.62843 10.6244 4.62843Z" fill="#4B596A"/>
<path d="M14.8099 4.62843C14.3764 4.62843 14.0254 4.27743 14.0254 3.84388V2.27478C14.0254 1.84123 14.377 1.49023 14.8099 1.49023C15.2428 1.49023 15.5945 1.84123 15.5945 2.27478V3.84388C15.5945 4.27743 15.2428 4.62843 14.8099 4.62843Z" fill="#4B596A"/>
<path d="M18.9955 4.62843C18.5619 4.62843 18.2109 4.27743 18.2109 3.84388V2.27478C18.2109 1.84123 18.5626 1.49023 18.9955 1.49023C19.4284 1.49023 19.78 1.84123 19.78 2.27478V3.84388C19.78 4.27743 19.4284 4.62843 18.9955 4.62843Z" fill="#4B596A"/>
</g>
<defs>
<clipPath id="clip0_5287_47426">
<rect width="26" height="26" fill="white"/>
</clipPath>
</defs>
</svg>
