<svg width="26" height="26" viewBox="0 0 26 26" fill="none" xmlns="http://www.w3.org/2000/svg">
<g clip-path="url(#clip0_5287_39141)">
<path d="M16.9058 6.83111C16.7173 3.56811 14.0133 0.974609 10.6983 0.974609C7.38334 0.974609 4.67284 3.56811 4.48434 6.83111H4.46484V10.2891C8.54034 10.2891 11.8423 13.5911 11.8423 17.6601C11.8423 21.5861 8.76134 24.7971 4.88084 25.0181C9.09284 24.8816 12.7718 22.6521 14.9168 19.3371C16.1843 17.3871 16.9253 15.0666 16.9253 12.5706V6.83111H16.9058ZM12.9213 9.58711C12.0373 9.58711 11.2508 9.19711 10.7048 8.59261L10.6983 8.59911C10.6983 8.59911 10.6918 8.59261 10.6853 8.59261C10.1393 9.19711 9.35284 9.58711 8.46884 9.58711C6.89584 9.58711 5.62184 8.37161 5.51134 6.83111C5.50484 6.75961 5.48534 6.68811 5.48534 6.61011C5.48534 4.96561 6.82434 3.63311 8.46884 3.63311C9.35934 3.63311 10.1523 4.02961 10.6983 4.64711C11.2443 4.02961 12.0308 3.63311 12.9213 3.63311C14.5658 3.63311 15.9048 4.96561 15.9048 6.61011C15.9048 6.68811 15.8853 6.75961 15.8788 6.83111C15.7683 8.37161 14.4943 9.58711 12.9213 9.58711Z" fill="#D0D6DE"/>
<path d="M12.9204 3.63281C12.0299 3.63281 11.2434 4.02931 10.6974 4.64681C10.1514 4.02931 9.35838 3.63281 8.46788 3.63281C6.82338 3.63281 5.48438 4.96531 5.48438 6.60981C5.48438 6.68781 5.50387 6.75931 5.51037 6.83081C5.62087 8.37131 6.89488 9.58681 8.46788 9.58681C9.35188 9.58681 10.1384 9.19681 10.6844 8.59231C10.6324 8.54681 10.3594 8.28681 10.2684 7.94881C10.2554 7.88381 10.2424 7.81881 10.2424 7.75381C10.2424 7.27931 10.6974 6.90231 10.6974 6.90231C10.6974 6.90231 11.1459 7.27931 11.1459 7.75381C11.1459 8.18281 10.7624 8.54031 10.7039 8.59231C11.2499 9.19681 12.0364 9.58681 12.9204 9.58681C14.4934 9.58681 15.7674 8.37131 15.8779 6.83081C15.8844 6.75931 15.9039 6.68781 15.9039 6.60981C15.9039 4.96531 14.5649 3.63281 12.9204 3.63281ZM8.46788 7.60431C7.92188 7.60431 7.47338 7.16231 7.47338 6.60981C7.47338 6.06381 7.92188 5.61531 8.46788 5.61531C9.02038 5.61531 9.46888 6.06381 9.46888 6.60981C9.46888 7.16231 9.02038 7.60431 8.46788 7.60431ZM13.0829 7.60431C12.5369 7.60431 12.0884 7.16231 12.0884 6.60981C12.0884 6.06381 12.5369 5.61531 13.0829 5.61531C13.6354 5.61531 14.0774 6.06381 14.0774 6.60981C14.0774 7.16231 13.6354 7.60431 13.0829 7.60431Z" fill="#F0F3F6"/>
<path d="M9.46816 6.61169C9.46816 6.06244 9.02226 5.61719 8.47236 5.61719C7.92246 5.61719 7.47656 6.06244 7.47656 6.61169C7.47656 7.16094 7.92246 7.60619 8.47236 7.60619C9.02226 7.60619 9.46816 7.16094 9.46816 6.61169Z" fill="black"/>
<path d="M14.0814 6.61169C14.0814 6.06244 13.6355 5.61719 13.0856 5.61719C12.5357 5.61719 12.0898 6.06244 12.0898 6.61169C12.0898 7.16094 12.5357 7.60619 13.0856 7.60619C13.6355 7.60619 14.0814 7.16094 14.0814 6.61169Z" fill="black"/>
<path d="M11.1509 7.75254C11.1509 7.28259 10.6965 6.90234 10.6965 6.90234C10.6965 6.90234 10.2422 7.28324 10.2422 7.75254C10.2422 7.82144 10.2539 7.88709 10.2708 7.95144C10.3592 8.29204 10.6354 8.54944 10.6848 8.59299C10.6894 8.59689 10.6965 8.60339 10.6965 8.60339C10.6965 8.60339 10.7037 8.59689 10.7082 8.59299C10.7667 8.54099 11.1502 8.18739 11.1502 7.75319L11.1509 7.75254Z" fill="black"/>
<path d="M20.9656 9.18809C20.8382 8.88389 20.4657 8.76624 20.1719 8.91704L16.9252 10.5888V12.572C16.9252 15.0686 16.1829 17.3891 14.918 19.3378C15.8065 19.2455 16.6931 18.9966 17.5349 18.563C20.9753 16.7911 22.43 12.6929 20.9656 9.18744V9.18809Z" fill="#8595AA"/>
<path d="M11.8423 17.6594C11.8423 13.5911 8.53904 10.293 4.46484 10.293V25.0265C8.53969 25.0265 11.8423 21.7278 11.8423 17.6594Z" fill="#8595AA"/>
</g>
<defs>
<clipPath id="clip0_5287_39141">
<rect width="26" height="26" fill="white"/>
</clipPath>
</defs>
</svg>
