<svg width="26" height="26" viewBox="0 0 26 26" fill="none" xmlns="http://www.w3.org/2000/svg">
<g clip-path="url(#clip0_5287_38477)">
<path fill-rule="evenodd" clip-rule="evenodd" d="M5.18066 3.77504L16.0565 5.62429L11.2296 10.4512L2.68921 5.96749C2.36486 5.79719 2.29856 5.36104 2.55791 5.10234L3.28071 4.38019C3.77861 3.88229 4.48646 3.65674 5.18066 3.77504Z" fill="#93C9FF"/>
<path fill-rule="evenodd" clip-rule="evenodd" d="M20.3764 9.94401L22.2269 20.8198C22.3452 21.5147 22.119 22.2232 21.6211 22.7211L20.899 23.4426C20.6396 23.7013 20.2041 23.635 20.0338 23.3106L15.5508 14.7703L20.3764 9.94401Z" fill="#93C9FF"/>
<path fill-rule="evenodd" clip-rule="evenodd" d="M23.5545 6.76567L12.2244 18.0958V21.0267C12.2244 21.6032 11.9956 22.1557 11.588 22.5633L9.93571 24.2156C9.61916 24.5321 9.07706 24.3514 9.01401 23.9081L8.20606 18.2551C8.17161 18.0159 7.98441 17.828 7.74521 17.7942L2.09216 16.9863C1.64886 16.9232 1.46816 16.3811 1.78471 16.0646L3.43701 14.4129C3.84456 14.0054 4.39706 13.7766 4.97296 13.7766H7.90381L19.234 2.44642C20.4378 1.32322 22.315 1.35572 23.4791 2.52052C24.6439 3.68402 24.6771 5.56122 23.5545 6.76567Z" fill="#C8E1FF"/>
</g>
<defs>
<clipPath id="clip0_5287_38477">
<rect width="26" height="26" fill="white"/>
</clipPath>
</defs>
</svg>
