<svg width="26" height="26" viewBox="0 0 26 26" fill="none" xmlns="http://www.w3.org/2000/svg">
<g clip-path="url(#clip0_5109_28676)">
<path d="M12.9478 15.9788C12.095 15.9788 11.4041 15.2879 11.4041 14.4351C11.4041 11.9222 12.9342 10.7028 14.0509 9.81228C14.9498 9.09533 15.4679 8.65008 15.6564 7.82913C15.8091 7.16418 15.6934 6.60128 15.3028 6.11053C14.7951 5.47353 13.8487 5.04453 12.9478 5.04453C11.7733 5.04453 10.7495 5.79658 10.3998 6.91588C10.3192 7.17263 10.2789 7.44108 10.2789 7.71408C10.2789 8.56688 9.58796 9.25783 8.73516 9.25783C7.88236 9.25783 7.19141 8.56688 7.19141 7.71408C7.19141 7.12843 7.27981 6.54928 7.45336 5.99418C8.20801 3.58008 10.4167 1.95703 12.9485 1.95703C14.7951 1.95703 16.6229 2.81113 17.7182 4.18718C18.6906 5.40788 19.0273 6.94708 18.6659 8.52008C18.2265 10.4317 16.9785 11.4269 15.9755 12.2264C14.9466 13.0467 14.4916 13.4503 14.4916 14.4344C14.4916 15.2872 13.8006 15.9788 12.9478 15.9788Z" fill="#FC2D4C"/>
<path d="M12.9676 17.8047C11.6715 17.8047 10.6211 18.8551 10.6211 20.1512C10.6211 21.4473 11.6715 22.4977 12.9676 22.4977C14.2637 22.4977 15.3141 21.4473 15.3141 20.1512C15.3141 18.8551 14.2637 17.8047 12.9676 17.8047Z" fill="#FC2D4C"/>
</g>
<defs>
<clipPath id="clip0_5109_28676">
<rect width="26" height="26" fill="white"/>
</clipPath>
</defs>
</svg>
