<svg width="26" height="26" viewBox="0 0 26 26" fill="none" xmlns="http://www.w3.org/2000/svg">
<g clip-path="url(#clip0_5287_38882)">
<path d="M20.8193 13.031L20.6873 14.4129L12.8281 10.249C12.468 10.0585 12.2262 9.70103 12.1833 9.29608L12.1554 9.03608L12.1534 9.01853C12.1203 8.70653 12.2041 8.39193 12.3985 8.14558C12.9659 7.42733 13.2773 6.47768 13.1973 5.46108C13.0361 3.41293 11.3533 1.87503 9.4384 2.02583C7.5235 2.17663 6.10195 3.95893 6.26315 6.00708C6.35025 7.11468 6.88325 8.07083 7.6561 8.69353C7.92585 8.91063 8.1059 9.22003 8.13385 9.56518C8.14165 9.66203 8.1293 9.75628 8.115 9.84988L8.12475 9.84663C8.17155 10.1723 8.037 10.4979 7.77375 10.6955L5.69635 12.2562L11.0718 11.3312C12.4609 11.1141 13.7635 12.0644 13.9806 13.4535C14.1977 14.8425 13.2474 16.1451 11.8583 16.3622L5.65865 17.4893C5.4799 17.5283 5.3018 17.5426 5.125 17.5511L6.17215 22.9357C6.3184 23.6884 6.97425 24.2337 7.74125 24.2409L17.8279 24.3377C17.2728 24.3377 16.7236 24.2279 16.2114 24.0147L12.9295 22.649C11.6003 22.1914 10.8937 20.7426 11.3513 19.4127C11.8089 18.0834 13.2584 17.3769 14.5877 17.8345L20.4 19.815H20.879C20.879 19.815 22.8284 19.9749 23.6409 17.995C24.4534 16.0158 23.1241 14.2426 20.8193 13.031Z" fill="#8BBDFF"/>
<path d="M12.829 10.2486L20.6882 14.4125L20.8201 13.0306L17.6312 9.74685C18.9436 9.55185 20.1253 8.58595 20.5881 7.16635C21.2244 5.2131 20.2598 3.14675 18.434 2.552C16.6075 1.95725 14.6113 3.0577 13.975 5.01095C13.5629 6.27585 13.8248 7.5856 14.5548 8.51445L12.1562 9.03445L12.1842 9.29445C12.2278 9.6994 12.4689 10.0569 12.829 10.2473V10.2486Z" fill="#3180F3"/>
<path d="M11.8589 16.3594C13.248 16.1423 14.1983 14.8403 13.9812 13.4506C13.7641 12.0609 12.4621 11.1113 11.0724 11.3284L5.69694 12.2533L7.77434 10.6926C8.03759 10.495 8.17214 10.1694 8.12534 9.84375L8.11559 9.847L3.74824 11.3797C2.33449 11.9614 1.49859 13.4896 1.83659 15.0347C2.17589 16.5882 3.58834 17.6216 5.12559 17.5475C5.30239 17.5391 5.48049 17.5255 5.65924 17.4858L11.8589 16.3587V16.3594Z" fill="#3180F3"/>
<path d="M14.5866 17.8327C13.2574 17.3751 11.8085 18.0816 11.3503 19.4109C10.8927 20.7401 11.5992 22.189 12.9285 22.6472L16.2103 24.0129C16.7225 24.2261 17.2718 24.3359 17.8269 24.3359C19.1535 24.3359 20.2293 23.2602 20.2293 21.9335L20.3983 19.8139L14.586 17.8333L14.5866 17.8327Z" fill="#3180F3"/>
</g>
<defs>
<clipPath id="clip0_5287_38882">
<rect width="26" height="26" fill="white"/>
</clipPath>
</defs>
</svg>
