<svg width="26" height="26" viewBox="0 0 26 26" fill="none" xmlns="http://www.w3.org/2000/svg">
<g clip-path="url(#clip0_5287_38496)">
<path d="M22.6708 24.2303C16.4692 24.2303 11.4414 19.2025 11.4414 13.0009C11.4414 6.79923 16.4685 1.77148 22.6708 1.77148V24.2303Z" fill="#FFC84D"/>
<path d="M6.87504 15.2366L9.82149 13.5752C10.5261 13.2262 10.8147 12.3721 10.4656 11.6668C10.1166 10.9622 9.43409 10.7978 8.64759 11.0006L5.27344 12.0022L6.87504 15.2366Z" fill="#F78700"/>
<path d="M14.9636 7.26593C14.5898 6.51193 13.8599 6.33578 13.0181 6.55353L4.47711 9.08853L4.46476 9.09178C2.97886 9.50648 1.90701 10.9124 2.04286 12.5602C2.16961 14.0981 3.39941 15.387 4.93081 15.5768C6.64941 15.79 8.13726 14.6883 8.55066 13.1445C8.66831 12.7051 8.93286 12.3197 9.32936 12.0961L14.2739 9.30823C15.0279 8.93448 15.3367 8.01993 14.9636 7.26593Z" fill="#FF9210"/>
<path d="M19.6072 12.4175C20.3589 12.4175 20.9683 11.6236 20.9683 10.6443C20.9683 9.66498 20.3589 8.87109 19.6072 8.87109C18.8555 8.87109 18.2461 9.66498 18.2461 10.6443C18.2461 11.6236 18.8555 12.4175 19.6072 12.4175Z" fill="black"/>
<path d="M22.6695 17.4191H18.9664C18.607 17.4191 18.3164 17.1279 18.3164 16.7691C18.3164 16.4103 18.607 16.1191 18.9664 16.1191H22.6695V17.4191Z" fill="#FF6D00"/>
</g>
<defs>
<clipPath id="clip0_5287_38496">
<rect width="26" height="26" fill="white"/>
</clipPath>
</defs>
</svg>
