<svg width="26" height="26" viewBox="0 0 26 26" fill="none" xmlns="http://www.w3.org/2000/svg">
<g clip-path="url(#clip0_5287_45760)">
<path d="M14.0016 2.95652L16.0224 7.05087C16.1849 7.38042 16.4995 7.60922 16.8635 7.66187L21.3817 8.31837C22.2975 8.45162 22.6635 9.57677 22.0005 10.2229L18.731 13.4098C18.4677 13.6666 18.3475 14.0358 18.4099 14.3985L19.1814 18.8984C19.3381 19.8104 18.3806 20.5065 17.561 20.0756L13.5193 17.9507C13.1943 17.7798 12.8056 17.7798 12.4799 17.9507L8.43821 20.0756C7.61921 20.5065 6.66176 19.8104 6.81776 18.8984L7.58931 14.3985C7.65171 14.0364 7.53146 13.6666 7.26821 13.4098L3.99871 10.2229C3.33571 9.57677 3.70166 8.45097 4.61751 8.31837L9.13566 7.66187C9.49966 7.60922 9.81361 7.38042 9.97676 7.05087L11.9976 2.95652C12.4071 2.12647 13.5908 2.12647 14.0003 2.95652H14.0016Z" fill="#FFCD00"/>
<path d="M17.977 2.69876C17.6936 3.08421 17.407 4.35106 17.2237 5.30136C17.134 5.76611 17.6221 6.12556 18.0394 5.90131C18.8922 5.44306 20.0167 4.79306 20.3001 4.40761C20.772 3.76606 20.6349 2.86386 19.9933 2.39196C19.3518 1.92006 18.4489 2.05721 17.977 2.69876Z" fill="#FFE63B"/>
<path d="M23.3861 13.8619C22.9324 13.7111 21.6389 13.83 20.6782 13.9496C20.2083 14.0081 20.0178 14.5834 20.3597 14.911C21.0591 15.5805 22.025 16.4489 22.4787 16.5997C23.2347 16.8506 24.0504 16.4411 24.3013 15.6851C24.5522 14.9292 24.1427 14.1134 23.3868 13.8625L23.3861 13.8619Z" fill="#FFE63B"/>
<path d="M14.442 22.4563C14.4446 21.9779 13.9324 20.7845 13.5223 19.9077C13.3214 19.4787 12.7156 19.4754 12.5096 19.9018C12.089 20.7735 11.5612 21.9604 11.5586 22.4388C11.5541 23.235 12.1956 23.8844 12.9919 23.8896C13.7881 23.8941 14.4368 23.2526 14.442 22.4563Z" fill="#FFE63B"/>
<path d="M3.50428 16.6038C3.95993 16.4589 4.93624 15.6022 5.64344 14.9411C5.98924 14.6181 5.80528 14.0402 5.33664 13.9759C4.37723 13.8452 3.08568 13.7107 2.63003 13.8556C1.87148 14.0968 1.45158 14.908 1.69338 15.6665C1.93518 16.4251 2.74573 16.8456 3.50428 16.6038Z" fill="#FFE63B"/>
<path d="M5.69007 4.39388C5.96892 4.78258 7.08497 5.44623 7.93257 5.91488C8.34662 6.14368 8.83932 5.79073 8.75547 5.32468C8.58322 4.37178 8.31217 3.10168 8.03332 2.71298C7.56922 2.06623 6.66832 1.91738 6.02157 2.38148C5.37482 2.84558 5.22597 3.74648 5.69007 4.39323V4.39388Z" fill="#FFE63B"/>
</g>
<defs>
<clipPath id="clip0_5287_45760">
<rect width="26" height="26" fill="white"/>
</clipPath>
</defs>
</svg>
