<svg width="20" height="20" viewBox="0 0 20 20" fill="none" xmlns="http://www.w3.org/2000/svg">
<g clip-path="url(#clip0_5485_15828)">
<path d="M16.4971 9.99991C16.4971 9.99691 16.4971 9.99441 16.4971 9.99141C16.4961 9.44541 16.6776 8.91491 17.0571 8.52191L17.9541 7.59391C18.1986 7.34141 18.2456 6.95741 18.0701 6.65291L16.9336 4.68441C16.7581 4.37991 16.4016 4.22891 16.0606 4.31391L14.8841 4.60791C14.3281 4.74691 13.7396 4.66291 13.2441 4.37441L13.2296 4.36591C12.7426 4.08241 12.3841 3.62141 12.2291 3.07941L11.8936 1.90791C11.7971 1.56991 11.4881 1.33691 11.1366 1.33691H8.86363C8.51213 1.33691 8.20313 1.56991 8.10663 1.90791L7.74863 3.15841C7.60663 3.65391 7.28013 4.07691 6.83163 4.33091C6.78563 4.35691 6.73963 4.38391 6.69463 4.41091C6.24613 4.67941 5.70963 4.75641 5.20263 4.62941L3.93913 4.31391C3.59813 4.22891 3.24213 4.37991 3.06613 4.68441L1.92963 6.65291C1.75413 6.95741 1.80113 7.34141 2.04563 7.59391L2.94263 8.52191C3.32213 8.91491 3.50413 9.44491 3.50313 9.99141C3.50313 9.99441 3.50313 9.99741 3.50313 9.99991C3.50313 10.0029 3.50313 10.0054 3.50313 10.0084C3.50413 10.5549 3.32213 11.0849 2.94263 11.4779L2.04563 12.4059C1.80113 12.6584 1.75413 13.0424 1.92963 13.3469L3.06613 15.3154C3.24163 15.6199 3.59813 15.7709 3.93913 15.6859L5.20213 15.3704C5.70913 15.2439 6.24563 15.3204 6.69413 15.5889C6.73963 15.6164 6.78563 15.6429 6.83163 15.6689C7.28013 15.9229 7.60663 16.3459 7.74863 16.8414L8.10663 18.0919C8.20313 18.4299 8.51213 18.6629 8.86363 18.6629H11.1366C11.4881 18.6629 11.7971 18.4299 11.8936 18.0919L12.2516 16.8414C12.3936 16.3459 12.7201 15.9229 13.1686 15.6689C13.2146 15.6429 13.2606 15.6159 13.3061 15.5889C13.7546 15.3204 14.2911 15.2434 14.7981 15.3704L16.0611 15.6859C16.4021 15.7709 16.7581 15.6199 16.9341 15.3154L18.0706 13.3469C18.2461 13.0424 18.1991 12.6584 17.9546 12.4059L17.0576 11.4779C16.6781 11.0854 16.4966 10.5549 16.4976 10.0084C16.4976 10.0054 16.4971 10.0029 16.4971 9.99991Z" fill="#A3ADB7"/>
<path d="M10.0003 13.6368C7.99478 13.6368 6.36328 12.0048 6.36328 9.9998C6.36328 7.9948 7.99528 6.3623 10.0003 6.3623C12.0053 6.3623 13.6378 7.9943 13.6378 9.9998C13.6378 12.0053 12.0058 13.6368 10.0003 13.6368ZM10.0003 7.8618C8.82228 7.8618 7.86328 8.8208 7.86328 9.9993C7.86328 11.1778 8.82228 12.1363 10.0003 12.1363C11.1783 12.1363 12.1378 11.1773 12.1378 9.9993C12.1378 8.8213 11.1788 7.8618 10.0003 7.8618Z" fill="#303D4C"/>
</g>
<defs>
<clipPath id="clip0_5485_15828">
<rect width="20" height="20" fill="white"/>
</clipPath>
</defs>
</svg>
