<svg width="20" height="20" viewBox="0 0 20 20" fill="none" xmlns="http://www.w3.org/2000/svg">
<g clip-path="url(#clip0_5485_20669)">
<path d="M10 1.41113C5.1675 1.41113 1.25 4.91813 1.25 9.24413C1.25 10.9711 1.8795 12.5636 2.939 13.8576C3.327 14.3316 3.5045 14.9431 3.3875 15.5441L2.91 17.9926C2.83 18.4036 3.26 18.7251 3.6315 18.5316L6.538 17.0186C6.9485 16.8051 7.421 16.7356 7.8725 16.8381C8.5535 16.9926 9.2655 17.0771 10 17.0771C14.8325 17.0771 18.75 13.5701 18.75 9.24413C18.75 4.91813 14.8325 1.41113 10 1.41113Z" fill="#E2E5E8"/>
<path d="M6.37794 8.51514C6.91894 8.51514 7.35694 8.95364 7.35694 9.49414C7.35694 9.75364 7.25394 10.0026 7.06994 10.1866C6.88644 10.3701 6.63744 10.4736 6.37744 10.4736C5.83644 10.4736 5.39844 10.0351 5.39844 9.49464C5.39844 8.95414 5.83694 8.51564 6.37744 8.51564L6.37794 8.51514Z" fill="#333D4B"/>
<path d="M13.6235 10.4731C14.1642 10.4731 14.6025 10.0348 14.6025 9.49414C14.6025 8.95345 14.1642 8.51514 13.6235 8.51514C13.0828 8.51514 12.6445 8.95345 12.6445 9.49414C12.6445 10.0348 13.0828 10.4731 13.6235 10.4731Z" fill="#333D4B"/>
<path d="M10.0005 10.4731C10.5412 10.4731 10.9795 10.0348 10.9795 9.49414C10.9795 8.95345 10.5412 8.51514 10.0005 8.51514C9.4598 8.51514 9.02148 8.95345 9.02148 9.49414C9.02148 10.0348 9.4598 10.4731 10.0005 10.4731Z" fill="#333D4B"/>
</g>
<defs>
<clipPath id="clip0_5485_20669">
<rect width="20" height="20" fill="white"/>
</clipPath>
</defs>
</svg>
