<svg width="20" height="20" viewBox="0 0 20 20" fill="none" xmlns="http://www.w3.org/2000/svg">
<g clip-path="url(#clip0_5485_20698)">
<path d="M13.8188 3.78833C13.8188 4.06433 13.5948 4.28833 13.3188 4.28833H5.86784C5.59184 4.28833 5.36784 4.06433 5.36784 3.78833V3.27783H4.02734V16.7748H15.1588V3.27833H13.8183V3.78883L13.8188 3.78833Z" fill="white"/>
<path d="M5.86719 4.28845H13.3182C13.5942 4.28845 13.8182 4.06445 13.8182 3.78845V3.48145H5.36719V3.78845C5.36719 4.06445 5.59119 4.28845 5.86719 4.28845Z" fill="#A3ADB7"/>
<path d="M13.3191 2.21006H11.0141C11.0191 2.16006 11.0291 2.11006 11.0291 2.05506C11.0291 1.87006 10.9941 1.69006 10.9241 1.52506C10.7191 1.03506 10.2291 0.685059 9.65914 0.685059C9.08914 0.685059 8.60414 1.03506 8.39914 1.52506C8.32914 1.69006 8.28914 1.87006 8.28914 2.05506C8.28914 2.11006 8.29914 2.16006 8.30414 2.21006H5.86914C5.58914 2.21006 5.36914 2.43506 5.36914 2.71006V3.48006H13.8191V2.71006C13.8191 2.43506 13.5941 2.21006 13.3191 2.21006ZM9.65914 1.57506C9.92914 1.57506 10.1441 1.79006 10.1441 2.05506C10.1441 2.32006 9.92914 2.54006 9.65914 2.54006C9.39414 2.54006 9.17914 2.32006 9.17914 2.05506C9.17914 1.79006 9.39414 1.57506 9.65914 1.57506Z" fill="#D0D5DA"/>
<path d="M15.551 1.52686H10.9245C10.9925 1.68936 11.0305 1.86786 11.0305 2.05536C11.0305 2.10836 11.0205 2.15886 11.015 2.21036H13.318C13.594 2.21036 13.818 2.43436 13.818 2.71036V3.27836H15.1585V16.7754H4.02653V3.27836H5.36703V2.71036C5.36703 2.43436 5.59103 2.21036 5.86703 2.21036H8.30653C8.30053 2.15886 8.29103 2.10836 8.29103 2.05536C8.29103 1.86786 8.32903 1.68936 8.39703 1.52686H3.63353C3.05303 1.52686 2.58203 1.99786 2.58203 2.57836V17.4754C2.58203 18.0564 3.05303 18.5269 3.63353 18.5269H15.551C16.1315 18.5269 16.6025 18.0559 16.6025 17.4754V2.57836C16.6025 1.99736 16.1315 1.52686 15.551 1.52686Z" fill="#FFC33A"/>
<path d="M9.66023 1.57275C9.39373 1.57275 9.17773 1.78875 9.17773 2.05525C9.17773 2.32175 9.39373 2.53775 9.66023 2.53775C9.92673 2.53775 10.1427 2.32175 10.1427 2.05525C10.1427 1.78875 9.92673 1.57275 9.66023 1.57275Z" fill="#FFC33A"/>
</g>
<defs>
<clipPath id="clip0_5485_20698">
<rect width="20" height="20" fill="white"/>
</clipPath>
</defs>
</svg>
