<svg width="20" height="20" viewBox="0 0 20 20" fill="none" xmlns="http://www.w3.org/2000/svg">
<g clip-path="url(#clip0_5485_17225)">
<path d="M14.2297 8.89657H5.76367V5.54257C5.76367 3.20857 7.66267 1.30957 9.99667 1.30957C12.3307 1.30957 14.2297 3.20857 14.2297 5.54257V8.89657ZM7.26367 7.39657H12.7297V5.54257C12.7297 4.03557 11.5037 2.80957 9.99667 2.80957C8.48967 2.80957 7.26367 4.03557 7.26367 5.54257V7.39657Z" fill="#6B7683"/>
<path d="M15.4961 6.54248H4.49609C3.39152 6.54248 2.49609 7.43791 2.49609 8.54248V16.0425C2.49609 17.147 3.39152 18.0425 4.49609 18.0425H15.4961C16.6007 18.0425 17.4961 17.147 17.4961 16.0425V8.54248C17.4961 7.43791 16.6007 6.54248 15.4961 6.54248Z" fill="#AFB7C0"/>
<path d="M9.99609 12.5635C10.8245 12.5635 11.4961 11.8919 11.4961 11.0635C11.4961 10.235 10.8245 9.56348 9.99609 9.56348C9.16767 9.56348 8.49609 10.235 8.49609 11.0635C8.49609 11.8919 9.16767 12.5635 9.99609 12.5635Z" fill="#313D4C"/>
<path d="M9.99609 14.9385C9.58159 14.9385 9.24609 14.6025 9.24609 14.1885V11.48C9.24609 11.066 9.58159 10.73 9.99609 10.73C10.4106 10.73 10.7461 11.066 10.7461 11.48V14.1885C10.7461 14.6025 10.4106 14.9385 9.99609 14.9385Z" fill="#313D4C"/>
</g>
<defs>
<clipPath id="clip0_5485_17225">
<rect width="20" height="20" fill="white"/>
</clipPath>
</defs>
</svg>
