<svg width="20" height="20" viewBox="0 0 20 20" fill="none" xmlns="http://www.w3.org/2000/svg">
<rect width="11.849" height="6.21515" transform="translate(3.79688 6.99707)" fill="#FF1B1A"/>
<rect width="6.22904" height="8.18543" rx="3.11452" transform="matrix(0.979171 -0.203038 0.182983 0.983116 0 3.46582)" fill="#FF1B1A"/>
<rect width="6.13559" height="8.06264" rx="3.0678" transform="matrix(0.979171 0.203038 0.182983 -0.983116 0.0292969 16.4429)" fill="#FF1B1A"/>
<rect width="6.21591" height="8.20101" rx="3.10796" transform="matrix(0.999946 0.0104426 -0.00937342 0.999956 6.79102 0.976074)" fill="#FF1B1A"/>
<rect width="6.21591" height="8.78448" rx="3.10796" transform="matrix(0.999946 -0.0104426 -0.00937342 -0.999956 6.77539 18.8452)" fill="#FF1B1A"/>
<rect width="6.11132" height="7.95904" rx="3.05566" transform="matrix(0.931678 0.363284 -0.330349 0.943859 14.1953 2.1416)" fill="#FF1B1A"/>
<rect width="6.25684" height="8.14856" rx="3.12842" transform="matrix(0.931678 -0.363284 -0.330349 -0.943859 14.1699 19.0234)" fill="#FF1B1A"/>
</svg>
