<svg width="20" height="20" viewBox="0 0 20 20" fill="none" xmlns="http://www.w3.org/2000/svg">
<g clip-path="url(#clip0_5485_16238)">
<path d="M6.63281 13.585C7.19831 15.559 8.20681 17.011 9.37481 17.402V13.585H6.63281Z" fill="#5DCFCD"/>
<path d="M6.34944 12.335H9.37494V7.66504H6.34944C6.22094 8.40404 6.14844 9.18854 6.14844 10C6.14844 10.8115 6.22094 11.596 6.34944 12.335Z" fill="#5DCFCD"/>
<path d="M13.367 6.41466C12.8015 4.44066 11.793 2.98866 10.625 2.59766V6.41466H13.367Z" fill="#5DCFCD"/>
<path d="M10.625 17.402C11.793 17.011 12.8015 15.5595 13.367 13.585H10.625V17.402Z" fill="#5DCFCD"/>
<path d="M13.6505 12.335C13.779 11.596 13.8515 10.8115 13.8515 10C13.8515 9.18854 13.779 8.40404 13.6505 7.66504H10.625V12.335H13.6505Z" fill="#5DCFCD"/>
<path d="M9.37481 2.59766C8.20681 2.98866 7.19831 4.44016 6.63281 6.41466H9.37481V2.59766Z" fill="#5DCFCD"/>
<path d="M9.99938 18.7649C5.16438 18.7649 1.23438 14.8349 1.23438 9.99986C1.23438 5.16486 5.16438 1.23486 9.99938 1.23486C8.73438 1.23486 7.59438 1.98986 6.70938 3.25486C6.11938 4.09986 5.64438 5.17986 5.33438 6.41486H2.02438C1.84438 6.81486 1.69438 7.23486 1.57438 7.66486H5.07938C4.96438 8.40486 4.89938 9.18486 4.89938 9.99986C4.89938 10.8149 4.96438 11.5949 5.07938 12.3349H1.57438C1.69438 12.7649 1.84438 13.1849 2.02438 13.5849H5.33438C5.64438 14.8199 6.11938 15.8999 6.70938 16.7449C7.59438 18.0099 8.73438 18.7649 9.99938 18.7649Z" fill="#5DCFCD"/>
<path d="M18.765 9.99986C18.765 14.8349 14.835 18.7649 10 18.7649C11.265 18.7649 12.405 18.0099 13.29 16.7449C13.88 15.8999 14.355 14.8199 14.665 13.5849H17.975C18.155 13.1849 18.305 12.7649 18.425 12.3349H14.92C15.035 11.5949 15.1 10.8149 15.1 9.99986C15.1 9.18486 15.035 8.40486 14.92 7.66486H18.425C18.305 7.23486 18.155 6.81486 17.975 6.41486H14.665C14.355 5.17986 13.88 4.09986 13.29 3.25486C12.405 1.98986 11.265 1.23486 10 1.23486C14.835 1.23486 18.765 5.16486 18.765 9.99986Z" fill="#5DCFCD"/>
<path d="M13.6504 12.335H14.9199C15.0354 11.593 15.1019 10.813 15.1019 10C15.1019 9.18704 15.0354 8.40704 14.9199 7.66504H13.6504C13.7789 8.40404 13.8514 9.18854 13.8514 10C13.8514 10.8115 13.7789 11.596 13.6504 12.335Z" fill="#00ADAB"/>
<path d="M5.08044 12.335H6.34994C6.22144 11.596 6.14894 10.8115 6.14894 10C6.14894 9.18854 6.22144 8.40404 6.34994 7.66504H5.08044C4.96494 8.40704 4.89844 9.18704 4.89844 10C4.89844 10.813 4.96494 11.593 5.08044 12.335Z" fill="#00ADAB"/>
<path d="M13.289 16.746C13.8805 15.8985 14.3525 14.82 14.667 13.585H13.3665C12.801 15.559 11.7925 17.011 10.6245 17.402V18.14H9.37453V17.402C8.20653 17.011 7.19803 15.5595 6.63253 13.585H5.33203C5.64653 14.82 6.11853 15.8985 6.71003 16.746C7.59253 18.01 8.73453 18.7645 9.99953 18.7645C11.2645 18.7645 12.4065 18.01 13.289 16.746Z" fill="#00ADAB"/>
<path d="M6.71003 3.25385C6.11853 4.10135 5.64653 5.17985 5.33203 6.41485H6.63253C7.19803 4.44085 8.20653 2.98885 9.37453 2.59785V1.85985H10.6245V2.59785C11.7925 2.98885 12.801 4.44035 13.3665 6.41485H14.667C14.3525 5.17985 13.8805 4.10135 13.289 3.25385C12.4065 1.98985 11.2645 1.23535 9.99953 1.23535C8.73453 1.23535 7.59253 1.98985 6.71003 3.25385Z" fill="#00ADAB"/>
<path d="M9.375 13.585V17.402V18.1395H10.625V17.402V13.585H9.375Z" fill="#00ADAB"/>
<path d="M10.625 6.41485V2.59785V1.86035H9.375V2.59785V6.41485H10.625Z" fill="#00ADAB"/>
<path d="M10.625 7.66504H9.375V12.335H10.625V7.66504Z" fill="#00ADAB"/>
<path d="M13.3662 6.41504H2.02322C1.84222 6.81654 1.69322 7.23404 1.57422 7.66504H18.4247C18.3057 7.23404 18.1562 6.81654 17.9757 6.41504H13.3667H13.3662Z" fill="#00ADAB"/>
<path d="M13.6502 12.335H1.57422C1.69322 12.766 1.84272 13.1835 2.02322 13.585H17.9752C18.1562 13.1835 18.3052 12.766 18.4242 12.335H13.6492H13.6502Z" fill="#00ADAB"/>
</g>
<defs>
<clipPath id="clip0_5485_16238">
<rect width="20" height="20" fill="white"/>
</clipPath>
</defs>
</svg>
