<svg width="20" height="20" viewBox="0 0 20 20" fill="none" xmlns="http://www.w3.org/2000/svg">
<g clip-path="url(#clip0_5485_20624)">
<path d="M12.8012 16.0635C12.8012 17.61 11.5477 18.8635 10.0012 18.8635C8.45467 18.8635 7.20117 17.61 7.20117 16.0635H12.8012Z" fill="#FF9E00"/>
<path d="M8.3125 2.82522C8.3125 1.89272 9.0685 1.13672 10.001 1.13672C10.9335 1.13672 11.6895 1.89272 11.6895 2.82522H8.313H8.3125Z" fill="#FF9E00"/>
<path d="M3.05228 9.41187C3.05228 5.42137 6.41628 2.21687 10.4628 2.47887C14.1558 2.71787 16.9483 5.94937 16.9483 9.64987V12.6894L18.1303 14.7364C18.4708 15.3264 18.0453 16.0639 17.3638 16.0639H2.63628C1.95528 16.0639 1.52928 15.3264 1.86978 14.7364L3.05178 12.6894L3.05228 9.41187Z" fill="#FFC000"/>
</g>
<defs>
<clipPath id="clip0_5485_20624">
<rect width="20" height="20" fill="white"/>
</clipPath>
</defs>
</svg>
