<svg width="26" height="26" viewBox="0 0 26 26" fill="none" xmlns="http://www.w3.org/2000/svg">
<g clip-path="url(#clip0_5287_42522)">
<path d="M12.9023 24.1953C19.1846 24.1953 24.2773 19.1026 24.2773 12.8203C24.2773 6.53807 19.1846 1.44531 12.9023 1.44531C6.6201 1.44531 1.52734 6.53807 1.52734 12.8203C1.52734 19.1026 6.6201 24.1953 12.9023 24.1953Z" fill="#7BD58F"/>
<path d="M5.87032 15.8773C7.26031 15.8773 8.38712 14.7505 8.38712 13.3605C8.38712 11.9706 7.26031 10.8438 5.87032 10.8438C4.48033 10.8438 3.35352 11.9706 3.35352 13.3605C3.35352 14.7505 4.48033 15.8773 5.87032 15.8773Z" fill="#23B169"/>
<path d="M19.9348 15.8773C21.3248 15.8773 22.4516 14.7505 22.4516 13.3605C22.4516 11.9706 21.3248 10.8438 19.9348 10.8438C18.5448 10.8438 17.418 11.9706 17.418 13.3605C17.418 14.7505 18.5448 15.8773 19.9348 15.8773Z" fill="#23B169"/>
<path d="M10.0573 11.4213C10.7243 11.4213 11.265 10.8806 11.265 10.2136C11.265 9.54656 10.7243 9.00586 10.0573 9.00586C9.39031 9.00586 8.84961 9.54656 8.84961 10.2136C8.84961 10.8806 9.39031 11.4213 10.0573 11.4213Z" fill="black"/>
<path d="M15.6628 11.4213C16.3298 11.4213 16.8705 10.8806 16.8705 10.2136C16.8705 9.54656 16.3298 9.00586 15.6628 9.00586C14.9958 9.00586 14.4551 9.54656 14.4551 10.2136C14.4551 10.8806 14.9958 11.4213 15.6628 11.4213Z" fill="black"/>
<path d="M12.9032 15.7133C14.0927 15.7133 14.9748 15.9265 15.5013 16.1033C15.7418 16.1839 15.9277 15.8862 15.7489 15.7068C15.2237 15.179 14.1187 14.7246 12.9032 14.7246C11.6877 14.7246 10.5827 15.179 10.0575 15.7068C9.87877 15.8862 10.0647 16.1839 10.3052 16.1033C10.8323 15.9265 11.7137 15.7133 12.9032 15.7133Z" fill="#039133"/>
<path d="M9.89871 6.63879C10.5162 6.35084 10.8068 6.04274 11.0479 5.76844C11.187 5.60984 11.3846 5.68329 11.3827 5.90819C11.3788 6.39504 11.0785 7.05674 10.2692 7.43374C9.45996 7.81074 8.75991 7.61639 8.38486 7.30569C8.21131 7.16204 8.28216 6.96379 8.49276 6.95924C8.85806 6.95079 9.28121 6.92674 9.89806 6.63879H9.89871Z" fill="black"/>
<path d="M9.76867 15.8112C9.46187 15.2028 9.14532 14.922 8.86322 14.6893C8.70072 14.5554 8.76767 14.3552 8.99257 14.35C9.47942 14.3383 10.1496 14.6191 10.5519 15.416C10.9536 16.2129 10.7807 16.9188 10.4824 17.3036C10.3439 17.4817 10.1437 17.4167 10.1327 17.2061C10.1132 16.8408 10.0755 16.4196 9.76867 15.8112Z" fill="#039133"/>
<path d="M16.0362 15.8112C16.343 15.2028 16.6595 14.922 16.9416 14.6893C17.1041 14.5554 17.0372 14.3552 16.8123 14.35C16.3254 14.3383 15.6553 14.6191 15.2529 15.416C14.8512 16.2129 15.0241 16.9188 15.3225 17.3036C15.4609 17.4817 15.6611 17.4167 15.6722 17.2061C15.6917 16.8408 15.7294 16.4196 16.0362 15.8112Z" fill="#039133"/>
<path d="M15.9078 6.63879C15.2903 6.35084 14.9997 6.04274 14.7586 5.76844C14.6195 5.60984 14.4219 5.68329 14.4238 5.90819C14.4277 6.39504 14.728 7.05674 15.5373 7.43374C16.3465 7.81074 17.0466 7.61639 17.4216 7.30569C17.5952 7.16204 17.5243 6.96379 17.3137 6.95924C16.9484 6.95079 16.5246 6.92674 15.9078 6.63879Z" fill="black"/>
</g>
<defs>
<clipPath id="clip0_5287_42522">
<rect width="26" height="26" fill="white"/>
</clipPath>
</defs>
</svg>
