<svg width="26" height="26" viewBox="0 0 26 26" fill="none" xmlns="http://www.w3.org/2000/svg">
<g clip-path="url(#clip0_4715_11676)">
<path d="M13 24.375C19.2822 24.375 24.375 19.2822 24.375 13C24.375 6.71776 19.2822 1.625 13 1.625C6.71776 1.625 1.625 6.71776 1.625 13C1.625 19.2822 6.71776 24.375 13 24.375Z" fill="#FFC84D"/>
<path d="M19.2036 13.918C19.6801 13.918 20.0649 14.3444 19.9771 14.8124C19.4552 17.6061 16.5269 19.7452 12.9929 19.7452C9.45882 19.7452 6.53057 17.6061 6.00862 14.8124C5.92087 14.3444 6.30632 13.918 6.78212 13.918H19.2036Z" fill="#FF6D00"/>
<path d="M12.9926 15.5644C15.3099 15.5644 17.4542 14.9534 19.2034 13.918H6.78125C8.5304 14.9534 10.6754 15.5644 12.9926 15.5644Z" fill="white"/>
<path d="M10.0225 11.5412C10.7814 11.5412 11.3966 10.926 11.3966 10.1671C11.3966 9.40817 10.7814 8.79297 10.0225 8.79297C9.26364 8.79297 8.64844 9.40817 8.64844 10.1671C8.64844 10.926 9.26364 11.5412 10.0225 11.5412Z" fill="black"/>
<path d="M15.9757 11.5412C16.7346 11.5412 17.3498 10.926 17.3498 10.1671C17.3498 9.40817 16.7346 8.79297 15.9757 8.79297C15.2168 8.79297 14.6016 9.40817 14.6016 10.1671C14.6016 10.926 15.2168 11.5412 15.9757 11.5412Z" fill="black"/>
</g>
<defs>
<clipPath id="clip0_4715_11676">
<rect width="26" height="26" fill="white"/>
</clipPath>
</defs>
</svg>
