<svg width="26" height="26" viewBox="0 0 26 26" fill="none" xmlns="http://www.w3.org/2000/svg">
<g clip-path="url(#clip0_2841_22325)">
<path d="M16.8707 23.2711C14.3363 23.2711 12.3506 20.4592 12.3506 16.8686V11.0777C12.3506 10.7183 12.6411 10.4277 13.0006 10.4277C13.36 10.4277 13.6506 10.7183 13.6506 11.0777V16.8686C13.6506 19.6343 15.1254 21.9711 16.8707 21.9711C17.2301 21.9711 17.5207 22.2616 17.5207 22.6211C17.5207 22.9805 17.2301 23.2711 16.8707 23.2711Z" fill="#23B169"/>
<path d="M1.10938 4.21257C3.18678 3.01592 6.17548 3.07572 8.81383 4.59867C11.4515 6.12162 12.9985 8.68067 13.0005 11.0779C10.9231 12.2745 7.93373 12.2147 5.29603 10.6918C2.65833 9.16882 1.11133 6.60977 1.10938 4.21257Z" fill="#68C76F"/>
<path d="M24.8911 4.21257C22.8137 3.01592 19.825 3.07572 17.1866 4.59867C14.5489 6.12162 13.0019 8.68067 13 11.0779C15.0774 12.2745 18.0668 12.2147 20.7045 10.6918C23.3421 9.16882 24.8891 6.60977 24.8911 4.21257Z" fill="#68C76F"/>
</g>
<defs>
<clipPath id="clip0_2841_22325">
<rect width="26" height="26" fill="white"/>
</clipPath>
</defs>
</svg>
