<svg width="26" height="26" viewBox="0 0 26 26" fill="none" xmlns="http://www.w3.org/2000/svg">
<g clip-path="url(#clip0_2841_22314)">
<path d="M7.7889 9.08004C9.5088 9.60849 10.6476 11.2374 11.1956 12.215C11.4361 12.644 11.271 13.1815 10.8309 13.4019C9.82795 13.9037 7.97155 14.6128 6.25165 14.085C4.53175 13.5566 3.39295 11.9277 2.845 10.9501C2.6045 10.5211 2.7696 9.98354 3.20965 9.76319C4.2126 9.26139 6.069 8.55224 7.7889 9.08004Z" fill="#0A9F60"/>
<path d="M17.8857 5.93769C19.6167 4.96789 21.7825 5.30069 22.9804 5.60814C23.5056 5.74269 23.8085 6.28414 23.6493 6.80219C23.2859 7.98389 22.4383 10.0047 20.7074 10.9745C18.9764 11.9443 16.8106 11.6115 15.6127 11.3041C15.0875 11.1695 14.7846 10.6281 14.9438 10.11C15.3072 8.92834 16.1548 6.90749 17.8857 5.93769Z" fill="#0A9F60"/>
<path d="M13.8478 3.73704C15.0938 6.44364 13.4116 9.87694 13.4116 9.87694C13.4116 9.87694 9.70988 8.92144 8.46448 6.21484C7.61233 4.36299 8.12973 2.17184 8.54248 0.971939C8.72253 0.447389 9.29908 0.182189 9.81453 0.386289C10.9943 0.853639 12.9956 1.88584 13.8478 3.73704Z" fill="#0A9F60"/>
<path d="M13.5477 9.11426H12.8574V16.2025H13.5477V9.11426Z" fill="#0A9F60"/>
<path d="M11.1121 12.4548L10.918 13.1172L13.0643 13.7463L13.2585 13.0839L11.1121 12.4548Z" fill="#0A9F60"/>
<path d="M15.1205 10.3257L13.0205 11.6348L13.386 12.2211L15.486 10.9121L15.1205 10.3257Z" fill="#0A9F60"/>
<path d="M17.7668 25.1314H8.63821C8.28266 25.1314 7.97781 24.8786 7.91216 24.5295L6.52246 17.1611H19.8832L18.4935 24.5295C18.4279 24.8786 18.1217 25.1314 17.7668 25.1314Z" fill="#6E483D"/>
<path d="M20.3674 15.2363H6.03682C5.60173 15.2363 5.24902 15.589 5.24902 16.0241V17.109C5.24902 17.5441 5.60173 17.8968 6.03682 17.8968H20.3674C20.8025 17.8968 21.1552 17.5441 21.1552 17.109V16.0241C21.1552 15.589 20.8025 15.2363 20.3674 15.2363Z" fill="#86584A"/>
</g>
<defs>
<clipPath id="clip0_2841_22314">
<rect width="26" height="26" fill="white"/>
</clipPath>
</defs>
</svg>
