<svg width="24" height="24" viewBox="0 0 24 24" fill="none" xmlns="http://www.w3.org/2000/svg">
<path d="M15.6544 11.0072L15.6661 11.0119L15.6779 11.0163L15.8949 11.0973L15.9061 11.1015L15.9174 11.1054L18.2773 11.9113C18.2773 11.9114 18.2773 11.9114 18.2774 11.9114C19.2727 12.2516 19.3167 13.6289 18.3918 14.0443L18.2653 14.0918L15.9175 14.8946C15.261 15.1187 14.6603 15.481 14.1558 15.957C13.6513 16.4331 13.2547 17.0119 12.993 17.6542L12.9884 17.6653L12.9842 17.6765L12.9032 17.8925L12.8988 17.9044L12.8947 17.9164L12.0888 20.2771C12.0887 20.2772 12.0887 20.2773 12.0887 20.2774C11.7477 21.2745 10.3675 21.316 9.95522 20.3882L9.90592 20.261L9.10553 17.9174C9.10551 17.9174 9.1055 17.9173 9.10549 17.9173C8.88139 17.2609 8.5191 16.6601 8.04306 16.1557C7.567 15.6511 6.98825 15.2546 6.34588 14.9928L6.33478 14.9883L6.32356 14.9841L6.10756 14.9031L6.09575 14.8987L6.08382 14.8946L3.72382 14.0886C2.72557 13.7477 2.68411 12.3675 3.61282 11.9551L3.74013 11.9058L6.08382 11.1054L6.08395 11.1053C6.7402 10.8811 7.34072 10.5187 7.84502 10.0427C8.34931 9.56661 8.74565 8.98794 9.00729 8.34569L9.01179 8.33463L9.01599 8.32345L9.09698 8.10745L9.10143 8.0956L9.10552 8.08361L9.91144 5.72285C9.91146 5.72281 9.91147 5.72276 9.91149 5.72272C9.9115 5.72268 9.91151 5.72265 9.91152 5.72261C10.2517 4.72764 11.6288 4.68324 12.0444 5.60925L12.0919 5.73582L12.8948 8.08385C13.119 8.74009 13.4814 9.34062 13.9574 9.84491C14.4335 10.3492 15.0122 10.7455 15.6544 11.0072ZM18.9996 2.85H19.0001C19.0282 2.85 19.0557 2.85787 19.0795 2.87272C19.0988 2.88478 19.1151 2.90105 19.1271 2.92023L19.1499 2.9758L19.4916 3.97743L19.6265 4.37281L20.0219 4.50756L21.0489 4.85756L21.0497 4.85782C21.0778 4.86737 21.1024 4.88506 21.1205 4.90864C21.1386 4.93222 21.1492 4.96063 21.1511 4.99027C21.153 5.01991 21.1461 5.04945 21.1312 5.07514C21.119 5.09609 21.102 5.11371 21.0817 5.12658L21.0255 5.14942L20.0227 5.49152L19.6273 5.62639L19.4925 6.02181L19.1425 7.04881L19.1425 7.04907C19.1329 7.07718 19.1152 7.10182 19.0916 7.11987C19.068 7.13791 19.0396 7.14855 19.01 7.15043C18.9803 7.15231 18.9508 7.14534 18.9251 7.13042C18.9039 7.11812 18.8862 7.10086 18.8733 7.08022L18.8503 7.0242L18.5086 6.02257L18.3737 5.62719L17.9783 5.49244L16.9513 5.14244L16.9505 5.14218C16.9224 5.13263 16.8978 5.11494 16.8797 5.09136C16.8616 5.06778 16.851 5.03937 16.8491 5.00973C16.8472 4.98009 16.8541 4.95055 16.8691 4.92486C16.8812 4.90391 16.8982 4.88629 16.9185 4.87342L16.9747 4.85057L17.9775 4.50848L18.3729 4.37361L18.5077 3.97819L18.8575 2.95155C18.8576 2.95144 18.8576 2.95133 18.8577 2.95122C18.8577 2.95121 18.8577 2.9512 18.8577 2.95119C18.8678 2.92171 18.8869 2.89611 18.9123 2.87797C18.9377 2.85976 18.9683 2.84998 18.9996 2.85Z" stroke="black" stroke-width="1.7"/>
</svg>
