<svg width="28" height="28" viewBox="0 0 28 28" fill="none" xmlns="http://www.w3.org/2000/svg">
<rect width="8.34703" height="11.7976" rx="4.17352" transform="matrix(0.999945 -0.0104438 -0.00937233 -0.999956 9.85352 26)" fill="#B3B3B3"/>
<rect width="8.3647" height="10.993" rx="4.18235" transform="matrix(0.979166 -0.203061 0.182962 0.98312 0.755859 5.3418)" fill="#B3B3B3"/>
<rect width="8.23921" height="10.8281" rx="4.11961" transform="matrix(0.919071 0.394092 0.375184 -0.92695 -0.00195312 21.6836)" fill="#B3B3B3"/>
<rect width="8.34703" height="11.014" rx="4.17352" transform="matrix(0.999945 0.0104438 -0.00937233 0.999956 9.87109 2)" fill="#B3B3B3"/>
<rect width="8.20671" height="10.6889" rx="4.10336" transform="matrix(0.931664 0.363321 -0.330315 0.943871 19.8164 3.56543)" fill="#B3B3B3"/>
<rect width="8.40212" height="10.9434" rx="4.20106" transform="matrix(0.931664 -0.363321 -0.330315 -0.943871 19.6445 25.1602)" fill="#B3B3B3"/>
<rect width="15.9114" height="8.34699" transform="translate(6.89453 10.0869)" fill="#B3B3B3"/>
<rect x="10.3398" y="11.626" width="1.603" height="1.603" rx="0.801501" fill="white"/>
<rect x="15.3086" y="11.626" width="1.603" height="1.603" rx="0.801501" fill="white"/>
<path d="M8.86328 14.1104C10.306 15.7935 14.2013 18.1499 18.2408 14.1104" stroke="white" stroke-width="0.8" stroke-linecap="round"/>
</svg>
