<svg width="20" height="20" viewBox="0 0 20 20" fill="none" xmlns="http://www.w3.org/2000/svg">
<g id="humbleicons:bulb">
<path id="Vector" d="M8.33333 15V14.9108C8.33333 14.2483 7.92 13.6708 7.4025 13.2575C6.72705 12.7188 6.23574 11.9835 5.99658 11.1533C5.75742 10.3232 5.78223 9.43917 6.06758 8.62371C6.35293 7.80826 6.8847 7.10166 7.5893 6.60172C8.2939 6.10179 9.13647 5.83324 10.0004 5.83324C10.8644 5.83324 11.7069 6.10179 12.4115 6.60172C13.1161 7.10166 13.6479 7.80826 13.9333 8.62371C14.2186 9.43917 14.2434 10.3232 14.0042 11.1533C13.7651 11.9835 13.2738 12.7188 12.5983 13.2575C12.08 13.6717 11.6667 14.2483 11.6667 14.9108V15M8.33333 15V16.6667C8.33333 16.8877 8.42113 17.0996 8.57741 17.2559C8.73369 17.4122 8.94565 17.5 9.16667 17.5H10.8333C11.0543 17.5 11.2663 17.4122 11.4226 17.2559C11.5789 17.0996 11.6667 16.8877 11.6667 16.6667V15M8.33333 15H11.6667M16.6667 10H17.5M3.33333 10H2.5M10 3.33333V2.5M14.7142 5.28583L15.3033 4.69667M5.28667 5.28583L4.69667 4.69667M10 12.5V10.8333" stroke="black" stroke-width="1.5" stroke-linecap="round" stroke-linejoin="round"/>
</g>
</svg>
