<svg width="19" height="18" viewBox="0 0 19 18" fill="none" xmlns="http://www.w3.org/2000/svg">
<path d="M4.13833 6.43018L4.13824 6.43014L4.13451 6.43922C4.12185 6.46998 4.10318 6.49791 4.07959 6.52136C4.056 6.54482 4.02797 6.56333 3.99713 6.57581C3.9663 6.5883 3.93328 6.5945 3.90002 6.59406C3.86676 6.59362 3.83392 6.58655 3.80342 6.57326C3.77293 6.55996 3.74539 6.54072 3.72243 6.51665C3.69947 6.49258 3.68154 6.46417 3.6697 6.43308C3.65786 6.402 3.65234 6.36886 3.65346 6.33562C3.65459 6.30237 3.66234 6.26968 3.67626 6.23947L3.67637 6.23952L3.68066 6.22964C4.19615 5.04424 5.0792 4.05606 6.19939 3.41104L6.20005 3.41066C9.10034 1.73476 12.8121 2.73715 14.4914 5.64645L14.4915 5.6467C14.8149 6.20615 15.0467 6.81249 15.1794 7.44275L14.6816 7.50547C14.5584 6.94139 14.3484 6.39875 14.0584 5.8972C12.5165 3.22521 9.1105 2.30702 6.45059 3.84333C5.42206 4.43495 4.61131 5.34198 4.13833 6.43018Z" fill="white" stroke="white"/>
<path fill-rule="evenodd" clip-rule="evenodd" d="M16.451 5.61676C16.7735 5.76676 16.913 6.14926 16.763 6.47026L15.8427 8.44651C15.7974 8.54347 15.7333 8.63054 15.6543 8.70274C15.5753 8.77493 15.4828 8.83085 15.3821 8.86728C15.2815 8.90371 15.1746 8.91994 15.0677 8.91505C14.9608 8.91015 14.8559 8.88423 14.759 8.83876L12.782 7.91176C12.7032 7.87741 12.6322 7.82764 12.573 7.76537C12.5139 7.7031 12.4678 7.62961 12.4375 7.54923C12.4072 7.46885 12.3934 7.38322 12.3967 7.2974C12.4001 7.21157 12.4207 7.12729 12.4572 7.04954C12.4937 6.97179 12.5454 6.90214 12.6092 6.84471C12.6731 6.78728 12.7478 6.74323 12.829 6.71517C12.9102 6.68711 12.9962 6.6756 13.0819 6.68133C13.1676 6.68705 13.2512 6.7099 13.328 6.74851L14.876 7.47526L15.596 5.92726C15.6317 5.85069 15.6821 5.78192 15.7444 5.72486C15.8067 5.66781 15.8797 5.6236 15.9591 5.59476C16.0385 5.56592 16.1228 5.55302 16.2072 5.55679C16.2916 5.56057 16.3744 5.58095 16.451 5.61676ZM5.37421 11.853C6.77896 14.2875 9.88021 15.1215 12.2997 13.7235C13.2352 13.1854 13.9725 12.3605 14.4027 11.3708C14.4407 11.2785 14.4967 11.1947 14.5675 11.1243C14.6382 11.054 14.7223 10.9984 14.8148 10.961C14.9073 10.9235 15.0064 10.9049 15.1062 10.9062C15.206 10.9076 15.3045 10.9288 15.396 10.9687C15.4875 11.0085 15.5701 11.0663 15.6389 11.1385C15.7078 11.2107 15.7616 11.2959 15.7971 11.3892C15.8327 11.4824 15.8492 11.5818 15.8459 11.6816C15.8425 11.7813 15.8192 11.8794 15.7775 11.97C15.2192 13.2538 14.2629 14.324 13.0497 15.0225C9.90871 16.8375 5.89096 15.7508 4.07521 12.6038C3.63484 11.8419 3.35128 10.9996 3.24121 10.1265L4.72921 9.93901C4.81171 10.5938 5.02171 11.244 5.37421 11.853Z" fill="white"/>
<path fill-rule="evenodd" clip-rule="evenodd" d="M2.54853 12.3836C2.394 12.3118 2.27433 12.1815 2.21583 12.0215C2.15732 11.8614 2.16477 11.6847 2.23653 11.5301L3.15678 9.55386C3.20213 9.4569 3.26615 9.36983 3.34518 9.29763C3.42421 9.22544 3.51669 9.16952 3.61735 9.13309C3.718 9.09666 3.82484 9.08043 3.93177 9.08532C4.0387 9.09022 4.14362 9.11614 4.24053 9.16161L6.21678 10.0886C6.29618 10.1225 6.36795 10.172 6.42781 10.2341C6.48767 10.2963 6.53439 10.37 6.56518 10.4506C6.59597 10.5312 6.6102 10.6172 6.60703 10.7035C6.60385 10.7898 6.58333 10.8745 6.5467 10.9527C6.51006 11.0308 6.45806 11.1008 6.39379 11.1584C6.32952 11.216 6.25431 11.2601 6.17263 11.2881C6.09095 11.316 6.00449 11.3272 5.91839 11.3209C5.8323 11.3147 5.74834 11.2912 5.67153 11.2519L4.12353 10.5251L3.40353 12.0731C3.36782 12.1497 3.31737 12.2185 3.25506 12.2755C3.19275 12.3326 3.11981 12.3768 3.0404 12.4056C2.96099 12.4345 2.87667 12.4474 2.79227 12.4436C2.70787 12.4398 2.62504 12.4194 2.54853 12.3836Z" fill="white"/>
</svg>
