<svg width="16" height="16" viewBox="0 0 16 16" fill="none" xmlns="http://www.w3.org/2000/svg">
<path d="M10.6609 7.45218L10.6725 7.45693L10.6843 7.46133L10.8471 7.52208L10.8583 7.52626L10.8696 7.53013L12.6395 8.13459C12.6395 8.1346 12.6396 8.13462 12.6396 8.13463C13.1979 8.32552 13.2281 9.09935 12.7126 9.33683L12.6275 9.36875L10.8697 9.96983C10.8696 9.96988 10.8694 9.96992 10.8693 9.96997C10.3484 10.1479 9.87161 10.4354 9.47123 10.8132C9.07074 11.1911 8.75597 11.6506 8.54817 12.1605L8.54365 12.1716L8.53944 12.1828L8.47869 12.3448L8.47425 12.3567L8.47016 12.3686L7.86574 14.1391C7.86571 14.1392 7.86568 14.1393 7.86565 14.1394C7.67408 14.6994 6.89757 14.7272 6.66279 14.2092L6.62938 14.123L6.03049 12.3694C5.8526 11.8483 5.565 11.3714 5.1871 10.9709C4.80919 10.5704 4.34977 10.2556 3.83984 10.0478L3.82875 10.0433L3.81753 10.0391L3.65553 9.97837L3.64372 9.97394L3.63179 9.96987L1.86179 9.36537L1.59013 10.1608L1.86178 9.36537C1.30095 9.17383 1.27311 8.39734 1.79177 8.16251L1.87812 8.12906L3.63179 7.53013L3.63192 7.53009C4.15286 7.35208 4.62956 7.06442 5.02988 6.68652C5.43019 6.30862 5.74481 5.84926 5.95251 5.33944L5.95701 5.32838L5.9612 5.3172L6.02195 5.1552L6.0264 5.14335L6.03049 5.13136L6.63491 3.36085C6.63492 3.36081 6.63494 3.36077 6.63495 3.36073C6.63496 3.36069 6.63498 3.36065 6.63499 3.36061C6.82586 2.80268 7.59951 2.77204 7.83711 3.28831L7.86907 3.37355L8.47024 5.1316C8.47026 5.13166 8.47028 5.13171 8.4703 5.13177C8.64831 5.65264 8.93594 6.12928 9.3138 6.52955C9.6917 6.92987 10.1511 7.24449 10.6609 7.45218ZM13.0821 2.05219L13.25 1.55964L13.4178 2.05168L13.5527 2.44706L13.9481 2.58181L14.4407 2.74967L13.9486 2.91752L13.5533 3.05239L13.4185 3.44781L13.2507 3.94036L13.0828 3.44832L12.9479 3.05294L12.5525 2.91819L12.06 2.75033L12.552 2.58248L12.9474 2.44761L13.0821 2.05219Z" stroke="white" stroke-width="1.7"/>
</svg>
