<svg width="18" height="18" viewBox="0 0 18 18" fill="none" xmlns="http://www.w3.org/2000/svg">
<path d="M9.75 3C9.75 3.19891 9.67098 3.38968 9.53033 3.53033C9.38968 3.67098 9.19891 3.75 9 3.75C8.80109 3.75 8.61032 3.67098 8.46967 3.53033C8.32902 3.38968 8.25 3.19891 8.25 3C8.25 2.80109 8.32902 2.61032 8.46967 2.46967C8.61032 2.32902 8.80109 2.25 9 2.25C9.19891 2.25 9.38968 2.32902 9.53033 2.46967C9.67098 2.61032 9.75 2.80109 9.75 3ZM5.505 4.755C5.505 4.95391 5.42598 5.14468 5.28533 5.28533C5.14468 5.42598 4.95391 5.505 4.755 5.505C4.55609 5.505 4.36532 5.42598 4.22467 5.28533C4.08402 5.14468 4.005 4.95391 4.005 4.755C4.005 4.55609 4.08402 4.36532 4.22467 4.22467C4.36532 4.08402 4.55609 4.005 4.755 4.005C4.95391 4.005 5.14468 4.08402 5.28533 4.22467C5.42598 4.36532 5.505 4.55609 5.505 4.755ZM13.995 4.755C13.995 4.95391 13.916 5.14468 13.7753 5.28533C13.6347 5.42598 13.4439 5.505 13.245 5.505C13.0461 5.505 12.8553 5.42598 12.7147 5.28533C12.574 5.14468 12.495 4.95391 12.495 4.755C12.495 4.55609 12.574 4.36532 12.7147 4.22467C12.8553 4.08402 13.0461 4.005 13.245 4.005C13.4439 4.005 13.6347 4.08402 13.7753 4.22467C13.916 4.36532 13.995 4.55609 13.995 4.755ZM13.995 13.245C13.995 13.4439 13.916 13.6347 13.7753 13.7753C13.6347 13.916 13.4439 13.995 13.245 13.995C13.0461 13.995 12.8553 13.916 12.7147 13.7753C12.574 13.6347 12.495 13.4439 12.495 13.245C12.495 13.0461 12.574 12.8553 12.7147 12.7147C12.8553 12.574 13.0461 12.495 13.245 12.495C13.4439 12.495 13.6347 12.574 13.7753 12.7147C13.916 12.8553 13.995 13.0461 13.995 13.245ZM5.505 13.245C5.505 13.4439 5.42598 13.6347 5.28533 13.7753C5.14468 13.916 4.95391 13.995 4.755 13.995C4.55609 13.995 4.36532 13.916 4.22467 13.7753C4.08402 13.6347 4.005 13.4439 4.005 13.245C4.005 13.0461 4.08402 12.8553 4.22467 12.7147C4.36532 12.574 4.55609 12.495 4.755 12.495C4.95391 12.495 5.14468 12.574 5.28533 12.7147C5.42598 12.8553 5.505 13.0461 5.505 13.245ZM15.75 9C15.75 9.19891 15.671 9.38968 15.5303 9.53033C15.3897 9.67098 15.1989 9.75 15 9.75C14.8011 9.75 14.6103 9.67098 14.4697 9.53033C14.329 9.38968 14.25 9.19891 14.25 9C14.25 8.80109 14.329 8.61032 14.4697 8.46967C14.6103 8.32902 14.8011 8.25 15 8.25C15.1989 8.25 15.3897 8.32902 15.5303 8.46967C15.671 8.61032 15.75 8.80109 15.75 9ZM9.75 15C9.75 15.1989 9.67098 15.3897 9.53033 15.5303C9.38968 15.671 9.19891 15.75 9 15.75C8.80109 15.75 8.61032 15.671 8.46967 15.5303C8.32902 15.3897 8.25 15.1989 8.25 15C8.25 14.8011 8.32902 14.6103 8.46967 14.4697C8.61032 14.329 8.80109 14.25 9 14.25C9.19891 14.25 9.38968 14.329 9.53033 14.4697C9.67098 14.6103 9.75 14.8011 9.75 15ZM3.75 9C3.75 9.19891 3.67098 9.38968 3.53033 9.53033C3.38968 9.67098 3.19891 9.75 3 9.75C2.80109 9.75 2.61032 9.67098 2.46967 9.53033C2.32902 9.38968 2.25 9.19891 2.25 9C2.25 8.80109 2.32902 8.61032 2.46967 8.46967C2.61032 8.32902 2.80109 8.25 3 8.25C3.19891 8.25 3.38968 8.32902 3.53033 8.46967C3.67098 8.61032 3.75 8.80109 3.75 9Z" fill="black" stroke="#0D0D0D" stroke-width="2"/>
</svg>
