<svg width="16" height="16" viewBox="0 0 16 16" fill="none" xmlns="http://www.w3.org/2000/svg">
<path d="M2.66602 3.99967C2.66602 3.82286 2.73625 3.65329 2.86128 3.52827C2.9863 3.40325 3.15587 3.33301 3.33268 3.33301H12.666C12.8428 3.33301 13.0124 3.40325 13.1374 3.52827C13.2624 3.65329 13.3327 3.82286 13.3327 3.99967V6.66634H2.66602V3.99967Z" stroke="#B3B3B3" stroke-width="1.2" stroke-linejoin="round"/>
<path d="M5.33203 4.33301V2.33301M10.6654 4.33301V2.33301" stroke="#B3B3B3" stroke-width="1.6" stroke-linecap="round"/>
<path d="M2.66602 6.66602H13.3327V12.666C13.3327 12.8428 13.2624 13.0124 13.1374 13.1374C13.0124 13.2624 12.8428 13.3327 12.666 13.3327H3.33268C3.15587 13.3327 2.9863 13.2624 2.86128 13.1374C2.73625 13.0124 2.66602 12.8428 2.66602 12.666V6.66602Z" stroke="#B3B3B3" stroke-width="1.2" stroke-linejoin="round"/>
</svg>
