<svg width="16" height="16" viewBox="0 0 16 16" fill="none" xmlns="http://www.w3.org/2000/svg">
<path d="M2.66699 4.00065C2.66699 3.82384 2.73723 3.65427 2.86225 3.52925C2.98728 3.40422 3.15685 3.33398 3.33366 3.33398H12.667C12.8438 3.33398 13.0134 3.40422 13.1384 3.52925C13.2634 3.65427 13.3337 3.82384 13.3337 4.00065V6.66732H2.66699V4.00065Z" stroke="#B3B3B3" stroke-width="1.2" stroke-linejoin="round"/>
<path d="M5.33301 4.33398V2.33398M10.6663 4.33398V2.33398" stroke="#B3B3B3" stroke-width="1.6" stroke-linecap="round"/>
<path d="M2.66699 6.66797H13.3337V12.668C13.3337 12.8448 13.2634 13.0143 13.1384 13.1394C13.0134 13.2644 12.8438 13.3346 12.667 13.3346H3.33366C3.15685 13.3346 2.98728 13.2644 2.86225 13.1394C2.73723 13.0143 2.66699 12.8448 2.66699 12.668V6.66797Z" stroke="#B3B3B3" stroke-width="1.2" stroke-linejoin="round"/>
</svg>
