<svg width="24" height="24" viewBox="0 0 24 24" fill="none" xmlns="http://www.w3.org/2000/svg">
<path d="M6 6L6.934 19.071C6.95194 19.323 7.06462 19.5589 7.24939 19.7313C7.43417 19.9036 7.67733 19.9996 7.93 20H16.068C16.3208 19.9999 16.5643 19.904 16.7492 19.7316C16.9342 19.5592 17.047 19.3232 17.065 19.071L18 6M12 11V15M20 6H4M8.5 6L9.044 4.368C9.17664 3.96975 9.43123 3.62333 9.77169 3.37781C10.1122 3.13229 10.5212 3.00011 10.941 3H13.058C13.4779 2.9999 13.8872 3.13198 14.2279 3.37752C14.5686 3.62305 14.8233 3.96959 14.956 4.368L15.5 6" stroke="black" stroke-width="2" stroke-linecap="round" stroke-linejoin="round"/>
</svg>
